<?xml version="1.0" encoding="utf-8"?>
<!-- Generator: Adobe Illustrator 19.0.0, SVG Export Plug-In . SVG Version: 6.00 Build 0)  -->
<svg version="1.1" id="Camada_1" xmlns="http://www.w3.org/2000/svg" xmlns:xlink="http://www.w3.org/1999/xlink" x="0px" y="0px"
	 viewBox="255 381 32 32" style="enable-background:new 255 381 32 32;" xml:space="preserve">
<g>
	<path d="M263.9,385.4c0-1.5,1.2-2.7,2.7-2.7h2.7v4.4c0,0.5,0.4,0.9,0.9,0.9h1.8c0.5,0,0.9-0.4,0.9-0.9v-4.4h2.7
		c1.5,0,2.7,1.2,2.7,2.7v7.1c0,1.5-1.2,2.7-2.7,2.7h-8.9c-1.5,0-2.7-1.2-2.7-2.7V385.4z M260.3,398.8v4.4c0,0.5,0.4,0.9,0.9,0.9h1.8
		c0.5,0,0.9-0.4,0.9-0.9v-4.4h2.7c1.5,0,2.7,1.2,2.7,2.7v7.1c0,1.5-1.2,2.7-2.7,2.7h-8.9c-1.5,0-2.7-1.2-2.7-2.7v-7.1
		c0-1.5,1.2-2.7,2.7-2.7H260.3z M278.1,398.8v4.4c0,0.5,0.4,0.9,0.9,0.9h1.8c0.5,0,0.9-0.4,0.9-0.9v-4.4h2.7c1.5,0,2.7,1.2,2.7,2.7
		v7.1c0,1.5-1.2,2.7-2.7,2.7h-8.9c-1.5,0-2.7-1.2-2.7-2.7v-7.1c0-1.5,1.2-2.7,2.7-2.7H278.1z"/>
</g>
</svg>
