<svg id="Camada_1" data-name="Camada 1" xmlns="http://www.w3.org/2000/svg" viewBox="0 0 32 32"><defs><style>.cls-1{opacity:0;}</style></defs><path d="M29.52,25,26.7,11.42a5.84,5.84,0,0,0-4.88-4.56V4.24A4.24,4.24,0,0,0,17.58,0H14.42a4.24,4.24,0,0,0-4.24,4.24V6.86A5.84,5.84,0,0,0,5.3,11.42L2.48,25a5.82,5.82,0,0,0,5.69,7H23.83a5.82,5.82,0,0,0,5.69-7Zm-15.1-23h3.16a2.3,2.3,0,0,1,2.3,2.3V6.79H12.12V4.24A2.3,2.3,0,0,1,14.42,1.94Zm5,6.79a2.31,2.31,0,0,1-1.87,1H14.42a2.31,2.31,0,0,1-1.87-1Zm7.39,19.9a3.87,3.87,0,0,1-3,1.43H8.17a3.88,3.88,0,0,1-3.8-4.67L7.2,11.82a3.91,3.91,0,0,1,3.23-3,4.24,4.24,0,0,0,4,2.86h3.16a4.24,4.24,0,0,0,4-2.86,3.91,3.91,0,0,1,3.23,3l2.83,13.57A3.9,3.9,0,0,1,26.84,28.63Z"/><rect class="cls-1" width="32" height="32"/></svg>