<?xml version="1.0" encoding="utf-8"?>
<!-- Generator: Adobe Illustrator 19.0.0, SVG Export Plug-In . SVG Version: 6.00 Build 0)  -->
<svg version="1.1" id="Camada_1" xmlns="http://www.w3.org/2000/svg" xmlns:xlink="http://www.w3.org/1999/xlink" x="0px" y="0px"
	 viewBox="-61 385 24 24" style="enable-background:new -61 385 24 24;" xml:space="preserve">
<g>
	<path id="XMLID_15_" d="M-61,402.8c2,1.2,4.3,1.9,6.8,1.9c7.2,0,13-5.8,13-13c0-2.5-0.7-4.8-1.9-6.8l0,0c3.7,2.3,6.2,6.4,6.2,11
		c0,7.2-5.8,13-13,13C-54.6,409-58.7,406.5-61,402.8L-61,402.8z"/>
	<path id="XMLID_8_" d="M-56.8,392.7c2,0,3.5-1.6,3.5-3.5c0,2,1.6,3.5,3.5,3.5c-2,0-3.5,1.6-3.5,3.5
		C-53.3,394.3-54.8,392.7-56.8,392.7z"/>
	<path id="XMLID_11_" d="M-50.3,397.3c1,0,1.8-0.8,1.8-1.8c0,1,0.8,1.8,1.8,1.8c-1,0-1.8,0.8-1.8,1.8
		C-48.5,398.1-49.3,397.3-50.3,397.3z"/>
	<path id="XMLID_14_" d="M-57.1,397.3c0.4,0,0.8-0.4,0.8-0.8c0,0.4,0.4,0.8,0.8,0.8c-0.4,0-0.8,0.4-0.8,0.8
		C-56.3,397.6-56.7,397.3-57.1,397.3z"/>
</g>
</svg>
