<?xml version="1.0" encoding="utf-8"?>
<!-- Generator: Adobe Illustrator 19.0.0, SVG Export Plug-In . SVG Version: 6.00 Build 0)  -->
<svg version="1.1" id="Camada_1" xmlns="http://www.w3.org/2000/svg" xmlns:xlink="http://www.w3.org/1999/xlink" x="0px" y="0px"
	 viewBox="-135 -241 341 241" style="enable-background:new -135 -241 341 241;" xml:space="preserve">
<style type="text/css">
	.st0{fill:#DFD3D4;}
	.st1{fill:#F1F1FA;filter:url(#Adobe_OpacityMaskFilter);}
	.st2{mask:url(#mask0_2_109);}
	.st3{fill:#D9A2A5;}
	.st4{fill:#D9A2A5;stroke:#DFD3D4;stroke-width:3.9862;}
	.st5{fill:#263238;}
	.st6{fill:#D32F39;stroke:#000000;stroke-width:0.4;}
	.st7{fill:#FFFFFF;}
	.st8{fill:#D32F39;}
	.st9{opacity:0.6;}
	.st10{opacity:0.6;fill:#FFFFFF;enable-background:new    ;}
	.st11{fill:#E0E0E0;}
</style>
<g>
	<path class="st0" d="M194.9-166c-15.6-28.5-50.5-46.1-82.1-38.3c-17.2,4.3-32.2,15.2-49.5,18.8c-14.7,3-30,0.5-43-7
		c-19-11-31.2-31.7-50.7-41.7c-27-13.8-62.1-2.3-81.4,21c-45.8,55.2-17.9,134.7,33,174.9C-53.1-17.8-38.2-10.8-0.9-2.5
		c31.7,7.1,85.6-3.2,116.6-12.9c31-9.6,59.5-29.4,75.9-57.5C207.8-100.9,210.5-137.5,194.9-166z"/>
</g>
<defs>
	<filter id="Adobe_OpacityMaskFilter" filterUnits="userSpaceOnUse" x="-272.2" y="-175.1" width="615.1" height="214.7">
		<feColorMatrix  type="matrix" values="1 0 0 0 0  0 1 0 0 0  0 0 1 0 0  0 0 0 1 0"/>
	</filter>
</defs>
<mask maskUnits="userSpaceOnUse" x="-272.2" y="-175.1" width="615.1" height="214.7" id="mask0_2_109">
	<path class="st1" d="M194.9-166c-15.6-28.5-50.5-46.1-82.1-38.3c-17.2,4.3-32.2,15.2-49.5,18.8c-14.7,3-30,0.5-43-7
		c-19-11-31.2-31.7-50.7-41.7c-27-13.8-62.1-2.3-81.4,21c-45.8,55.2-17.9,134.7,33,174.9C-53.1-17.8-38.2-10.8-0.9-2.5
		c31.7,7.1,85.6-3.2,116.6-12.9c31-9.6,59.5-29.4,75.9-57.5C207.8-100.9,210.5-137.5,194.9-166z"/>
</mask>
<g class="st2">
	<path class="st3" d="M108-34l3.7,1.5l-217.2,60.3C-169.6,21-292.2-0.6-269.4-32.5c28.4-39.9,60.3-63.8,135-63.8
		C-44.5-96.2-32.5-91.3,108-34z"/>
	<path class="st4" d="M132.9-61.4c39,0,70.5,8.7,103.6,50.3L130.7,37.6c-69.8-7.4-169,0.5-144.3-34.1
		C17.4-39.8,51.5-61.4,132.9-61.4z"/>
	<path class="st5" d="M-17.4-119.1c0,0.4-0.1,0.8-0.3,1.1c-0.2,0.3-0.5,0.6-0.9,0.7c-0.4,0.1-0.7,0.2-1.1,0.1
		c-0.4-0.1-0.7-0.3-1-0.5c-0.3-0.3-0.5-0.6-0.5-1c-0.1-0.4,0-0.8,0.1-1.1c0.1-0.4,0.4-0.7,0.7-0.9c0.3-0.2,0.7-0.3,1.1-0.3
		c0.3,0,0.5,0,0.7,0.1c0.2,0.1,0.4,0.2,0.6,0.4s0.3,0.4,0.4,0.6C-17.4-119.6-17.4-119.4-17.4-119.1z"/>
	<path class="st5" d="M-8.1-126.7c1.1,0,1.9-0.9,1.9-1.9c0-1.1-0.9-1.9-1.9-1.9s-1.9,0.9-1.9,1.9C-10.1-127.6-9.2-126.7-8.1-126.7z"
		/>
	<path class="st5" d="M-34.2-95.3c0,0.4-0.1,0.8-0.3,1.1c-0.2,0.3-0.5,0.6-0.9,0.7c-0.4,0.1-0.7,0.2-1.1,0.1c-0.4-0.1-0.7-0.3-1-0.5
		c-0.3-0.3-0.5-0.6-0.5-1c-0.1-0.4,0-0.8,0.1-1.1c0.1-0.4,0.4-0.7,0.7-0.9c0.3-0.2,0.7-0.3,1.1-0.3c0.3,0,0.5,0,0.7,0.1
		c0.2,0.1,0.4,0.2,0.6,0.4c0.2,0.2,0.3,0.4,0.4,0.6C-34.3-95.8-34.2-95.5-34.2-95.3z"/>
	<path class="st6" d="M-217.7-40.5c0-0.1-0.1-0.3-0.1-0.4c22.1,17.8,46,28.2,65.6,27.7c4.9-0.1,9.9-0.9,14.6-2.3l4.3,3.5
		c-6,2.1-12.4,3.3-18.7,3.4c-20.8,0.6-39.6-5.9-62.7-24.6c-1.1-2.4-2.2-4.9-3.2-7.5C-217.9-40.7-217.8-40.6-217.7-40.5z
		 M-217.7-40.5c1,2.5,2,4.9,3.1,7.1 M-217.7-40.5c22.1,17.7,45.9,28,65.5,27.5c5-0.1,10-0.9,14.9-2.4l0.3-0.1l-0.2-0.2
		c-5.3-5.5-8-12.8-8-21.6v0c0-9.7,4.1-14,7.5-15.9h0c4.8-2.8,11.5-2.4,17.3,1c6.4,3.8,10.2,10.1,10.2,16.9c0,2.8-0.7,5.6-2,8.1
		c-1.3,2.5-3.1,4.7-5.3,6.4h0c-3.4,2.6-7,4.8-10.9,6.5l-0.4,0.2l0.3,0.2c11.1,6.1,24,8.1,36.4,5.7h0c19.6-3.9,35.9-10.8,48.6-20.6
		c9.9-7.6,17.9-17.5,23.2-28.8c5.4-11.3,7.9-23.7,7.6-36.2V-94h0l0,0c-1.1-22.7-14.4-44.8-33.7-56.4c-16.8-10.1-38.3-12.8-60.5-7.8
		l0,0.2l0-0.2c-13.8,3.1-32.6,10.6-43.8,28.3l0.2,0.1l-0.2-0.1c-6,9.5-8.2,20.2-7.6,29.9c0.5,9.7,3.8,18.3,8.8,23.9
		c3.6,4,8.7,5.2,14.4,5.2c5.6,0,11.6-1.3,17-2.4l0.1,0h0l3.6-0.7h0c2.9-0.6,8.1-2.4,14.1-4.8c6.1-2.4,13-5.4,19.7-8.3
		C-74-90-67.7-92.9-63.1-95c2.3-1.1,4.2-1.9,5.5-2.6c0.5-0.2,1-0.4,1.3-0.6l0.3-0.1c0.1-0.1,0.3-0.1,0.3-0.2l0.9,3.4c0,0,0,0,0,0
		c-0.1,0.1-0.3,0.1-0.5,0.2c-0.4,0.2-0.9,0.4-1.6,0.8c-0.2,0.1-0.5,0.2-0.7,0.3c-1.3,0.6-2.9,1.4-4.9,2.3
		c-4.6,2.2-10.9,5.1-17.5,8.1c-6.6,3-13.5,6-19.5,8.5c-6,2.5-11.2,4.3-14.1,4.9c-1.1,0.2-2.3,0.5-3.5,0.7c-6,1.3-12.6,2.7-18.9,2.5
		c-6.3-0.1-12.1-1.8-16.5-6.6c-6.3-7-9.8-17.2-9.9-28.6l0,0c-0.1-10.6,2.8-21.1,8.3-30.1c11.9-18.9,31.7-26.8,46.4-30.2
		c23.3-5.3,45.9-2.4,63.6,8.2c20.5,12.3,34.5,35.8,35.7,59.8l0,0c0.1,1.2,1.3,18.7-8,38.5c-5.6,11.8-14,22.2-24.4,30.2l0,0
		C-54-15.3-70.9-8.2-91.2-4.1C-94.8-3.4-98.5-3-102.3-3c-4,0-7.9-0.4-11.8-1.3 M-114.1-4.3C-114.1-4.3-114.1-4.3-114.1-4.3l0,0.2
		L-114.1-4.3z"/>
	<path class="st5" d="M-129.7-9.7c-0.6-0.2-1.2-0.5-1.7-0.8c-1.3-0.8-2.5-1.7-3.7-2.7c-1.2-1-2.3-2.1-3.3-3.2
		c-0.5-0.5-0.8-1-1.1-1.6c0.1,0,0.5,0.5,1.3,1.4s2,1.9,3.4,3.1c1.4,1.1,2.6,2.1,3.6,2.8C-130.7-10.5-130.2-10.1-129.7-9.7z"/>
	<path class="st5" d="M-124.9-12.4c-0.7,0-1.4-0.2-2.1-0.5c-1.6-0.7-3.1-1.5-4.4-2.6c-1.3-1.1-2.5-2.3-3.6-3.7
		c-0.5-0.5-0.8-1.2-1.1-1.8c0.1,0,0.5,0.6,1.4,1.6c1.1,1.3,2.3,2.4,3.7,3.5c1.3,1.1,2.7,2,4.2,2.7
		C-125.7-12.7-124.9-12.5-124.9-12.4z"/>
	<path class="st7" d="M-28.3-42.2c-0.4,0.7-0.8,1.4-1.3,2c-2.4,3.1-5.1,5.9-8.1,8.3c-0.6,0.5-1.3,1-2,1.4c0.5-0.6,1.1-1.1,1.7-1.6
		c1.1-1,2.6-2.4,4.2-4c1.6-1.6,2.9-3.2,3.9-4.3C-29.4-41-28.8-41.6-28.3-42.2z"/>
	<path class="st8" d="M9.5-92.3l-8.1-41.9c-0.2-0.8-0.7-1.5-1.4-1.9c-0.7-0.4-1.5-0.6-2.3-0.4c-0.8,0.2-1.5,0.6-2,1.3
		c-0.5,0.7-0.7,1.5-0.5,2.3l0.4,1.9l-16.9,4.1c-1.8,0.4-3.4,1.3-4.8,2.5c-1.4,1.2-2.4,2.8-3.1,4.5l-10.2,2.5c-1.7,0.4-3.1,1.5-4.1,3
		c-0.9,1.5-1.2,3.3-0.8,5l0.9,3.7l-9.9,2.5c-0.7,0.2-1.3,0.5-1.8,0.9c-0.5,0.4-1,0.9-1.4,1.5c-0.4,0.6-0.6,1.2-0.7,1.9
		c-0.1,0.7-0.1,1.4,0.1,2c0.2,0.7,0.5,1.3,0.9,1.8c0.4,0.5,0.9,1,1.5,1.4c0.6,0.4,1.2,0.6,1.9,0.7c0.7,0.1,1.4,0.1,2-0.1l10-2.4
		l0.7,2.9c0.4,1.7,1.5,3.1,3,4c1.5,0.9,3.3,1.2,5,0.8l10.3-2.5v-0.1c1.4,1.2,3,2,4.7,2.4c1.7,0.4,3.5,0.4,5.3,0l15-3.7l0.2,0.9
		c0.2,0.8,0.7,1.5,1.4,1.9c0.7,0.4,1.5,0.6,2.3,0.5c0.8-0.2,1.5-0.6,2-1.3C9.4-90.7,9.6-91.5,9.5-92.3L9.5-92.3z"/>
	<path class="st5" d="M9.5-92.3c0.1,0.2,0.1,0.5,0.1,0.7c0,0.7-0.3,1.4-0.7,1.9c-0.4,0.4-0.9,0.8-1.4,1c-0.5,0.2-1.1,0.2-1.7,0.1
		c-0.6-0.1-1.1-0.4-1.5-0.8c-0.4-0.4-0.7-0.9-0.9-1.4c-0.1-0.4-0.2-0.8-0.3-1.2l0.1,0.1l-11,2.7l-3.3,0.8c-1.2,0.3-2.4,0.5-3.6,0.5
		c-2.7-0.1-5.2-1-7.2-2.7l0.3-0.2v0.1l0,0.2h-0.2c-3.5,0.9-7.1,1.8-11.1,2.7c-1,0.1-2.1,0-3.1-0.3c-1-0.3-1.9-0.9-2.6-1.7
		c-0.8-0.8-1.3-1.7-1.6-2.8c-0.3-1-0.5-2.1-0.8-3.1l0.2,0.2l-8.4,2.1c-0.7,0.2-1.4,0.4-2.2,0.5c-1,0.1-2,0-2.9-0.5
		c-0.9-0.4-1.7-1.1-2.2-1.9c-0.5-0.8-0.9-1.8-0.9-2.8c0-1,0.2-2,0.7-2.9c0.4-0.7,1-1.3,1.7-1.8c0.7-0.5,1.4-0.8,2.3-0.9l9.4-2.3
		l-0.2,0.3c-0.2-0.8-0.4-1.5-0.6-2.3c-0.2-0.8-0.4-1.7-0.5-2.5c-0.1-1.7,0.4-3.5,1.5-4.8c0.5-0.7,1.2-1.2,2-1.6
		c0.8-0.4,1.6-0.7,2.4-0.8l9.4-2.3l-0.1,0.1c0.9-2.4,2.6-4.4,4.7-5.8c1.1-0.6,2.2-1.1,3.4-1.4l3.5-0.9l13.2-3.2l-0.1,0.2
		c-0.1-0.5-0.2-1-0.3-1.5c-0.1-0.5-0.2-1-0.1-1.5c0.1-0.5,0.3-1,0.6-1.4s0.7-0.8,1.2-1c0.5-0.2,1-0.4,1.5-0.4c0.5,0,1,0.1,1.5,0.3
		c0.5,0.2,0.9,0.5,1.2,0.9c0.3,0.4,0.5,0.8,0.7,1.3l2,10.4c1.2,6.5,2.3,12.2,3.2,16.9c0.9,4.7,1.6,8.4,2.1,10.9
		C9-94.9,9.2-94,9.3-93.3c0.1,0.3,0.1,0.6,0.1,0.7C9.5-92.5,9.5-92.4,9.5-92.3c0,0,0-0.1-0.1-0.2c0-0.2-0.1-0.4-0.2-0.7l-0.6-2.9
		c-0.5-2.5-1.2-6.2-2.2-10.9c-0.9-4.7-2-10.4-3.3-16.9c-0.6-3.3-1.3-6.7-2-10.3c-0.1-0.4-0.3-0.8-0.6-1.2c-0.3-0.3-0.6-0.6-1-0.8
		c-0.4-0.2-0.9-0.3-1.3-0.3c-0.5,0-0.9,0.1-1.3,0.3c-0.4,0.2-0.8,0.5-1,0.9c-0.3,0.4-0.4,0.8-0.5,1.3c-0.1,0.5,0,1,0.1,1.4
		c0.1,0.5,0.2,1,0.3,1.5v0.2l-0.2,0l-13.2,3.3c-2.3,0.6-4.7,0.9-6.8,2.2c-2.1,1.3-3.7,3.3-4.6,5.6l0,0.1h-0.1l-9.4,2.3
		c-0.8,0.2-1.6,0.4-2.3,0.8c-0.7,0.4-1.3,0.9-1.8,1.5c-1,1.3-1.6,2.9-1.4,4.5c0.1,0.8,0.3,1.6,0.5,2.4c0.2,0.8,0.4,1.6,0.6,2.4
		l0.1,0.2l-0.2,0.1l-9.3,2.3c-0.8,0.1-1.5,0.4-2.1,0.8c-0.6,0.4-1.2,1-1.6,1.6c-0.5,0.8-0.7,1.7-0.6,2.6c0,0.9,0.3,1.8,0.8,2.6
		c0.5,0.8,1.2,1.4,2,1.8c0.8,0.4,1.7,0.5,2.6,0.4c0.7-0.1,1.4-0.3,2.1-0.5l8.4-2.1l0.2,0l0,0.2c0.3,1.1,0.5,2.1,0.8,3.1
		c0.3,1,0.8,1.9,1.5,2.6c0.7,0.7,1.5,1.3,2.5,1.6c0.9,0.3,1.9,0.4,2.9,0.3c3.9-0.9,7.6-1.8,11.1-2.7l-0.1,0.2v-0.1l-0.1-0.5l0.4,0.3
		c2,1.7,4.4,2.6,7,2.7c1.2,0,2.4-0.2,3.5-0.5l3.3-0.8l11-2.7h0.1v0.1c0.1,0.4,0.1,0.9,0.3,1.2c0.1,0.4,0.3,0.7,0.5,1
		c0.4,0.5,1.1,0.9,1.8,1.1c0.4,0.1,0.9,0.1,1.3,0c0.4-0.1,0.8-0.3,1.2-0.6c0.4-0.3,0.6-0.6,0.9-1c0.2-0.4,0.3-0.8,0.3-1.3
		C9.5-91.9,9.5-92.1,9.5-92.3z"/>
	<path class="st5" d="M3.5-92.1c-0.1,0-2.1-8.7-4.4-19.4C-3.2-122.3-5-131-4.9-131c0.1,0,2.1,8.7,4.4,19.4
		C1.9-100.9,3.6-92.1,3.5-92.1z"/>
	<path class="st5" d="M-21.8-90.8c-0.1,0-1.8-6.5-3.9-14.6c-2.1-8.1-3.6-14.7-3.5-14.7c0.1,0,1.8,6.5,3.9,14.6S-21.7-90.8-21.8-90.8
		z"/>
	<path class="st5" d="M-40.8-95.8c-0.7-1.6-1.2-3.2-1.5-4.9c-0.4-1.7-0.8-3.4-1-5.1c0.7,1.6,1.2,3.3,1.4,5
		C-41.4-99.2-41-97.5-40.8-95.8z"/>
	<path class="st7" d="M-31.8-117.5c0,0.1-1,0.2-2.6,0.5c-0.8,0.2-1.7,0.4-2.7,0.7c-1.1,0.3-2.2,0.7-3.2,1.2c-1,0.5-1.8,1.3-2.2,2.3
		c-0.2,0.9-0.2,1.8-0.1,2.7c0.2,1.6,0.5,2.6,0.4,2.6c-0.4-0.8-0.6-1.7-0.7-2.5c-0.2-1-0.2-1.9,0-2.9c0.2-0.6,0.5-1.1,0.9-1.5
		c0.4-0.4,1-0.8,1.5-1.1c1-0.6,2.1-1,3.3-1.3c1-0.3,2-0.4,2.8-0.6C-33.6-117.5-32.7-117.6-31.8-117.5z"/>
	<path class="st7" d="M-7.7-128.6c-0.3,0.1-0.6,0.2-0.9,0.3c-0.6,0.1-1.4,0.3-2.4,0.6l-7.9,1.7c-1.4,0.3-2.8,0.8-4.1,1.4
		c-1.1,0.6-2,1.3-2.7,2.3c-0.7,0.9-1.1,1.9-1.4,3c0-0.3,0-0.6,0.1-0.9c0.2-0.8,0.6-1.6,1.1-2.3c0.7-1,1.7-1.8,2.8-2.4
		c1.3-0.7,2.8-1.2,4.2-1.5c3.1-0.7,5.9-1.2,8-1.5c1-0.2,1.8-0.3,2.4-0.4C-8.3-128.6-8-128.7-7.7-128.6z"/>
	<path class="st7" d="M-45-103.5c-0.5,0.4-1.1,0.6-1.8,0.7c-1.1,0.3-2.7,0.4-4.5,0.8c-0.8,0.2-1.6,0.4-2.3,0.8
		c-0.6,0.3-1.1,0.7-1.6,1.2c-0.4,0.5-0.7,1-1,1.6c0-0.7,0.3-1.3,0.8-1.8c0.4-0.6,1-1,1.6-1.4c0.7-0.4,1.6-0.7,2.4-0.9
		c1.8-0.4,3.4-0.4,4.5-0.7C-45.7-103.4-45-103.6-45-103.5z"/>
	<path class="st7" d="M-0.8-135.8c0,0.1-0.3,0.1-0.8,0.2c-0.6,0.2-1.2,0.5-1.6,1c-0.4,0.5-0.7,1.1-0.7,1.8C-4-132.4-4-132-4-132
		c-0.1,0-0.2-0.3-0.3-0.8c0-0.7,0.2-1.5,0.7-2c0.5-0.6,1.2-0.9,1.9-1C-1.1-136-0.8-135.8-0.8-135.8z"/>
	<path class="st6" d="M285.1-2.9L285.1-2.9c8.5,0,17.3-5.5,25.6-12.9c8.3-7.4,16-16.7,22.2-24.3h0c2-2.4,4.1-4.8,5.9-6.8
		c0.4-0.4,0.7-0.8,1.1-1.2c1.2-1.3,2.1-2.4,2.7-3.1l-3.2-2.5c-1.2,1-2.5,2.4-4.1,4.2c-1.2,1.4-2.5,3-4,4.8c-0.5,0.7-1.1,1.3-1.7,2
		L285.1-2.9z M285.1-2.9c-1.8,0-3.6-0.3-5.4-0.8c-8.7-2.6-12.7-7-14.6-12c-1.8-5-1.4-10.6-1.1-15.6l0,0c0.3-4.7,0.5-8.6-0.4-11.6
		c-0.4-1.5-1.2-2.9-2.3-4c-1.1-1.1-2.6-2.1-4.5-2.8l0,0c-5.2-1.9-8.8-2-12-0.8c-3.2,1.2-5.9,3.5-9,6.4l0,0l0.1,0.1l-0.1-0.1l0,0
		c-3.8,3.4-8.1,7.1-14.2,9.6c-6.2,2.5-14.2,3.7-25.7,2c-11.9-1.8-31.1-8-54.6-28l0,0c-8.3-7-16.1-14.7-23.1-23.1l3.2-2.6
		c1.1,1.4,9.8,11.7,22.7,22.7c13.8,11.6,32.5,24,52.3,26.9c10.5,1.6,17.8,0.5,23.4-1.8c5.6-2.3,9.5-5.7,13.1-8.9l0,0l0,0
		c3.3-2.9,6.4-5.7,10.3-7.1c3.9-1.5,8.6-1.6,15,0.8c5.6,2.1,8.2,5.6,9.4,9.6c1.2,4.1,0.8,8.7,0.5,13l0,0c-0.4,5.1-0.7,9.9,0.8,13.9
		c1.5,4.1,4.9,7.4,11.9,9.5l0.1-0.2l-0.1,0.2c4,1.2,8.3,0.5,12.6-1.4c4.4-1.9,8.8-5.1,13.1-8.8c8.6-7.5,16.9-17.4,23-24.8l0,0
		L285.1-2.9z"/>
	<path class="st7" d="M220.5-38.7c0,0-0.2,0.2-0.5,0.4c-0.5,0.3-1,0.6-1.6,0.9c-1.8,0.9-3.8,1.6-5.8,2c-2,0.4-4,0.6-6.1,0.5
		c-0.6,0-1.2-0.1-1.8-0.2c-0.2,0-0.4-0.1-0.7-0.2c0-0.1,1,0,2.5,0c4,0,8-0.8,11.7-2.4C219.6-38.4,220.4-38.8,220.5-38.7z"/>
	<path class="st8" d="M121.9-82.6c-0.9,1-2.3,1.7-3.6,1.7c-1.4,0.1-2.8-0.4-3.8-1.4l-8-7.3l7.1-7.8l8,7.3c1,0.9,1.7,2.3,1.7,3.6
		C123.3-85,122.8-83.6,121.9-82.6z"/>
	<path class="st5" d="M121.9-82.6c0.3-0.4,0.5-0.8,0.7-1.2c0.6-1.2,0.7-2.6,0.2-3.8c-0.3-0.9-0.8-1.7-1.5-2.3l-2.4-2.2
		c-1.7-1.6-3.6-3.3-5.6-5.1h0.3l-3.5,3.9l-3.5,3.9v-0.3l5.6,5.1l2.4,2.2c0.7,0.6,1.5,1,2.4,1.2c1.3,0.3,2.6,0.1,3.8-0.6
		C121.2-82,121.5-82.3,121.9-82.6c-0.3,0.4-0.6,0.7-1.1,1c-1.2,0.8-2.6,1-3.9,0.8c-0.9-0.2-1.8-0.6-2.6-1.3
		c-0.8-0.7-1.6-1.4-2.4-2.2l-5.7-5.1l-0.2-0.1l0.2-0.2l3.5-3.9l3.5-3.9l0.1-0.2l0.2,0.1l5.6,5.1l2.4,2.2c0.7,0.7,1.2,1.5,1.5,2.4
		c0.4,1.3,0.3,2.7-0.4,4C122.6-83.3,122.3-82.9,121.9-82.6z"/>
	<path class="st8" d="M81.3-126.6l-13.9-11.5c-0.3-0.2-0.5-0.5-0.6-0.8s-0.3-0.6-0.3-1c0-0.3,0-0.7,0.1-1c0.1-0.3,0.3-0.6,0.5-0.9
		c0.2-0.3,0.5-0.5,0.8-0.6c0.3-0.2,0.6-0.3,1-0.3c0.3,0,0.7,0,1,0.1s0.6,0.3,0.9,0.5l13.9,11.5L81.3-126.6z"/>
	<path class="st8" d="M68.2-109.8l-13.9-11.5c-0.3-0.2-0.5-0.5-0.6-0.8c-0.2-0.3-0.3-0.6-0.3-1c0-0.3,0-0.7,0.1-1
		c0.1-0.3,0.3-0.6,0.5-0.9c0.2-0.3,0.5-0.5,0.8-0.6c0.3-0.2,0.6-0.3,1-0.3c0.3,0,0.7,0,1,0.1c0.3,0.1,0.6,0.3,0.9,0.5l13.9,11.5
		L68.2-109.8z"/>
	<g class="st9">
		<path class="st10" d="M81.3-126.6l-13.9-11.5c-0.3-0.2-0.5-0.5-0.6-0.8s-0.3-0.6-0.3-1c0-0.3,0-0.7,0.1-1c0.1-0.3,0.3-0.6,0.5-0.9
			c0.2-0.3,0.5-0.5,0.8-0.6c0.3-0.2,0.6-0.3,1-0.3c0.3,0,0.7,0,1,0.1s0.6,0.3,0.9,0.5l13.9,11.5L81.3-126.6z"/>
	</g>
	<g class="st9">
		<path class="st10" d="M68.2-109.8l-13.9-11.5c-0.3-0.2-0.5-0.5-0.6-0.8c-0.2-0.3-0.3-0.6-0.3-1c0-0.3,0-0.7,0.1-1
			c0.1-0.3,0.3-0.6,0.5-0.9c0.2-0.3,0.5-0.5,0.8-0.6c0.3-0.2,0.6-0.3,1-0.3c0.3,0,0.7,0,1,0.1c0.3,0.1,0.6,0.3,0.9,0.5l13.9,11.5
			L68.2-109.8z"/>
	</g>
	<path class="st5" d="M81.3-126.6c0.1-0.1,0.1-0.2,0.2-0.3l0.6-0.8l2.3-2.9v0.2l-6.5-5.3l-4.1-3.4l-2.2-1.8l-1.1-0.9
		c-0.3-0.3-0.8-0.5-1.2-0.5c-0.4,0-0.8,0-1.1,0.1c-0.4,0.1-0.7,0.4-0.9,0.7c-0.2,0.3-0.4,0.6-0.5,1c-0.1,0.4-0.1,0.7,0,1.1
		c0.1,0.3,0.3,0.7,0.5,0.9c0.3,0.3,0.5,0.5,0.8,0.8l1.7,1.4l5.9,5l4,3.4l1.1,0.9C81-126.9,81.1-126.8,81.3-126.6
		c-0.2-0.2-0.3-0.3-0.4-0.4l-1.1-0.9c-1-0.8-2.4-1.9-4.1-3.3l-6.1-5l-1.8-1.4c-0.3-0.2-0.6-0.5-0.9-0.8c-0.4-0.4-0.6-0.9-0.7-1.5
		c-0.1-0.6,0-1.1,0.3-1.6c0.3-0.5,0.7-0.9,1.2-1.2c0.5-0.3,1.1-0.3,1.7-0.3c0.5,0.1,1,0.3,1.5,0.6l1.1,0.9l2.2,1.8l4.1,3.4l6.4,5.4
		l0.1,0.1l-0.1,0.1l-2.5,2.9l-0.7,0.7C81.4-126.8,81.3-126.7,81.3-126.6z"/>
	<path class="st5" d="M68.2-109.8c0.1-0.1,0.1-0.2,0.2-0.3c0.2-0.2,0.4-0.5,0.6-0.8l2.3-2.9v0.2l-6.5-5.3l-4.1-3.3l-2.2-1.8
		l-1.1-0.9c-0.4-0.3-0.8-0.5-1.2-0.5c-0.4,0-0.8,0-1.1,0.1s-0.7,0.4-0.9,0.7c-0.2,0.3-0.4,0.6-0.5,1c-0.1,0.4-0.1,0.7,0,1.1
		c0.1,0.3,0.3,0.7,0.5,0.9c0.3,0.3,0.5,0.5,0.8,0.7l1.7,1.4l5.9,5l4,3.4l1.1,0.9C67.9-110.2,68.1-110.1,68.2-109.8
		c0-0.1-0.1-0.2-0.4-0.4l-1.1-0.9l-4.1-3.3l-6.1-5l-1.8-1.4c-0.3-0.2-0.6-0.5-0.9-0.8c-0.3-0.3-0.5-0.7-0.6-1.1
		c-0.1-0.4-0.1-0.9,0-1.3c0.1-0.4,0.3-0.8,0.6-1.2c0.3-0.3,0.7-0.6,1.1-0.8c0.4-0.2,0.9-0.2,1.3-0.2c0.5,0.1,1,0.3,1.5,0.6
		c0.4,0.3,0.8,0.6,1.1,0.9l2.2,1.8l4.1,3.4l6.4,5.4l0.1,0.1l-0.1,0.1c-1,1.2-1.9,2.2-2.5,2.9l-0.7,0.7
		C68.3-109.9,68.2-109.8,68.2-109.8z"/>
	<path class="st8" d="M112.8-112.1l0.4-0.4c0.8-0.9,1.2-2.1,1.1-3.3c0-1.2-0.5-2.4-1.4-3.2c-0.8-0.9-2-1.4-3.2-1.5
		c-1.2-0.1-2.4,0.3-3.4,1.1L86-136.4l-23.2,27.8l20.8,16.5c-0.6,1-0.9,2.2-0.7,3.4c0.2,1.2,0.8,2.3,1.7,3c1,0.8,2.3,1.2,3.5,1.1
		c1.3-0.1,2.5-0.7,3.3-1.7c2.9,2.2,6.6,3.2,10.3,2.7c3.6-0.5,7-2.3,9.3-5.2l3.3-4.2c2.2-2.8,3.3-6.3,3-9.9
		C117-106.3,115.4-109.6,112.8-112.1z"/>
	<path class="st5" d="M112.8-112.1l0.2,0.2l0.5,0.5c0.3,0.2,0.5,0.5,0.7,0.8l0.4,0.6l0.5,0.7c0.8,1.2,1.4,2.5,1.8,3.8
		c0.6,2.1,0.7,4.2,0.4,6.3c-0.4,2.1-1.2,4.1-2.4,5.9c-0.7,1.1-1.6,2.1-2.4,3.1c-0.9,1.2-1.8,2.2-2.8,3.2c-2.3,2.2-5.3,3.5-8.5,3.8
		c-3.5,0.3-7-0.7-9.8-2.8h0.3c-0.9,1-2.1,1.6-3.3,1.7c-0.7,0.1-1.4,0-2-0.2c-0.6-0.2-1.2-0.5-1.8-0.9c-1-0.8-1.6-1.9-1.8-3.2
		c-0.2-1.2,0.1-2.5,0.7-3.6l0,0.3l-16.1-12.9l-4.7-3.7l-0.2-0.1l0.1-0.2c8.5-10.1,16.4-19.6,23.3-27.8l0.1-0.2l0.1,0.1l20.3,17h-0.2
		c0.7-0.6,1.6-0.9,2.6-1c0.9-0.1,1.9,0.1,2.7,0.5c0.8,0.4,1.6,1.1,2,1.9c0.5,0.8,0.7,1.7,0.7,2.7c0,1-0.3,1.9-0.9,2.7
		c-0.1,0.2-0.3,0.4-0.5,0.6L112.8-112.1c0-0.1,0.2-0.3,0.6-0.9c0.5-0.8,0.8-1.8,0.8-2.7c0-0.8-0.2-1.5-0.5-2.2
		c-0.4-0.7-0.9-1.3-1.5-1.7c-0.8-0.6-1.8-0.9-2.7-0.9c-1.1,0-2.2,0.4-3,1l-0.1,0.1l-0.1-0.1l-20.3-16.9h0.3L63-108.5v-0.3l4.7,3.7
		l16.1,12.8l0.2,0.1l-0.1,0.2c-0.6,1-0.9,2.1-0.7,3.2c0.2,1.1,0.7,2.2,1.6,2.9c0.9,0.8,2.2,1.2,3.4,1.1c1.2-0.1,2.4-0.7,3.2-1.6
		l0.1-0.1l0.1,0.1c2.6,2,5.8,2.9,9.1,2.8c3.3-0.2,6.4-1.5,8.8-3.7c1-1,1.9-2.1,2.7-3.2c0.9-1.1,1.7-2.1,2.5-3.1
		c1.6-2.3,2.6-5,2.6-7.8c0.1-2.8-0.7-5.6-2.2-8c-0.2-0.2-0.3-0.5-0.4-0.7l-0.4-0.5c-0.2-0.3-0.5-0.6-0.7-0.8l-0.5-0.5
		C112.8-112,112.8-112.1,112.8-112.1z"/>
	<path class="st11" d="M89.5-111.5l-14.3-11.9l-2.3,2.8l14.3,11.9L89.5-111.5z"/>
	<path class="st5" d="M112.8-112.1c-0.2,0.4-0.5,0.7-0.8,1.1c-0.5,0.7-1.3,1.7-2.2,2.9c-1.9,2.4-4.6,5.6-7.6,9.2
		c-3,3.6-5.7,6.7-7.7,9.1L92.2-87c-0.3,0.4-0.6,0.7-0.9,1c0.2-0.4,0.5-0.7,0.8-1.1c0.5-0.7,1.3-1.7,2.2-2.8c1.9-2.4,4.6-5.6,7.6-9.2
		l7.7-9.2l2.3-2.8C112.1-111.4,112.4-111.8,112.8-112.1z"/>
	<path class="st5" d="M106.3-119.5c-0.2,0.4-0.5,0.8-0.8,1.1c-0.6,0.7-1.4,1.7-2.4,3c-2.1,2.5-4.9,5.9-8.1,9.7
		c-3.2,3.8-6.1,7.1-8.2,9.6c-1,1.2-1.8,2.2-2.5,2.9c-0.3,0.4-0.6,0.7-1,1c0.3-0.4,0.5-0.8,0.8-1.1c0.6-0.7,1.4-1.7,2.4-3
		c2.1-2.5,4.9-5.9,8.1-9.7l8.2-9.6l2.5-2.9C105.7-118.8,106-119.2,106.3-119.5z"/>
	<path class="st3" d="M71.3-159.6h-6.6l3.3-9l-10.1,13.8h6.6l-3.3,9L71.3-159.6z"/>
	<path class="st3" d="M22.9-149.6H13l5,16.7L2.7-158.4h10l-5-16.7L22.9-149.6z"/>
</g>
</svg>
