<?xml version="1.0" encoding="utf-8"?>
<!-- Generator: Adobe Illustrator 19.0.0, SVG Export Plug-In . SVG Version: 6.00 Build 0)  -->
<svg version="1.1" id="Camada_1" xmlns="http://www.w3.org/2000/svg" xmlns:xlink="http://www.w3.org/1999/xlink" x="0px" y="0px"
	 viewBox="-140 -229 331 229" style="enable-background:new -140 -229 331 229;" xml:space="preserve">
<style type="text/css">
	.st0{fill:#DFD3D4;}
	.st1{fill:#F1F1FA;filter:url(#Adobe_OpacityMaskFilter);}
	.st2{mask:url(#mask0_2_15);}
	.st3{fill:#D9A2A5;}
	.st4{fill:#D9A2A5;stroke:#DFD3D4;stroke-width:4.3493;}
	.st5{fill:#D32F39;stroke:#000000;}
	.st6{fill:#D32F39;}
	.st7{fill:url(#SVGID_1_);}
	.st8{fill:url(#SVGID_2_);}
	.st9{fill:url(#SVGID_3_);}
	.st10{fill:url(#SVGID_4_);}
	.st11{fill:url(#SVGID_5_);}
	.st12{fill:url(#SVGID_6_);}
	.st13{fill:url(#SVGID_7_);}
	.st14{fill:url(#SVGID_8_);}
	.st15{fill:url(#SVGID_9_);}
	.st16{fill:url(#SVGID_10_);}
	.st17{fill:url(#SVGID_11_);}
	.st18{fill:url(#SVGID_12_);}
	.st19{fill:url(#SVGID_13_);}
	.st20{fill:url(#SVGID_14_);}
	.st21{fill:url(#SVGID_15_);}
	.st22{fill:url(#SVGID_16_);}
	.st23{fill:#FFFFFF;}
	.st24{fill:#D32F39;stroke:#000000;stroke-width:0.2;}
	.st25{fill:#D32F39;stroke:#000000;stroke-width:0.3;}
</style>
<g>
	<path class="st0" d="M30.1-175c-25.9,30.3-47.4,6.8-87.4-3.1c-66.8-16.5-82.5,45.2-82.5,93.9c0,48.7,37.9,82.1,70.5,82.1
		c50.6,0,60.8-40.4,86.9-40.4c32.7,0,74.7,52.1,125.8,40.4C190.8-13,207-146.9,171.7-197.2C123.7-265.8,56-205.3,30.1-175z"/>
</g>
<defs>
	<filter id="Adobe_OpacityMaskFilter" filterUnits="userSpaceOnUse" x="-227.8" y="-238.5" width="510.2" height="285.5">
		<feColorMatrix  type="matrix" values="1 0 0 0 0  0 1 0 0 0  0 0 1 0 0  0 0 0 1 0"/>
	</filter>
</defs>
<mask maskUnits="userSpaceOnUse" x="-227.8" y="-238.5" width="510.2" height="285.5" id="mask0_2_15">
	<path class="st1" d="M30.1-175c-25.9,30.3-47.4,6.8-87.4-3.1c-66.8-16.5-82.5,45.2-82.5,93.9c0,48.7,37.9,82.1,70.5,82.1
		c50.6,0,60.8-40.4,86.9-40.4c32.7,0,74.7,52.1,125.8,40.4C190.8-13,207-146.9,171.7-197.2C123.7-265.8,56-205.3,30.1-175z"/>
</mask>
<g class="st2">
	<path class="st3" d="M187-20.5l4,1.7L-46,47c-70-7.4-203.7-31-178.9-65.8c31-43.5,65.8-69.6,147.3-69.6
		C20.7-88.4,33.7-83.1,187-20.5z"/>
	<path class="st4" d="M175.1-91.7c39.1,0,70.7,8.7,103.8,50.6l-106,48.9C103,0.4,3.5,8.4,28.3-26.4C59.3-69.9,93.5-91.7,175.1-91.7z
		"/>
	<path class="st5" d="M-89.5-28.4v-0.5H-90h-9.5c-8.1,0-14.8-6.6-14.8-14.8v-18.6c0-4.7,3.8-8.6,8.6-8.6c4.7,0,8.6,3.8,8.6,8.6v15.7
		v0.5h0.5h6.6h0.5v-0.5v-37.3c0-6.5,5.2-11.7,11.7-11.7c6.4,0,11.7,5.2,11.7,11.7V-62v0.5h0.5h6.6h0.5V-62v-9.5
		c0-4.7,3.8-8.6,8.6-8.6c4.7,0,8.6,3.8,8.6,8.6v12.4c0,8.1-6.6,14.8-14.8,14.8h-9.5h-0.5v0.5v40.6c0,1.3-1.1,2.4-2.4,2.4h-18.6
		c-1.3,0-2.4-1.1-2.4-2.4V-28.4z"/>
	<path class="st6" d="M120.5,0.1c2.4,0.9,5,1.3,7.7,1.3c0,0,0,0,0,0s0,0,0,0c2.7,0,5.3-0.5,7.7-1.3c0,0,0,0,0,0l6.1,0h0
		c0.4,0,0.8-0.4,0.8-0.8c0-0.4-0.4-0.8-0.8-0.8l-2.6,0c3-1.7,5.5-4,7.5-6.7l4.9-3.1c0.4-0.2,0.5-0.7,0.2-1.1
		c-0.2-0.4-0.7-0.5-1.1-0.2l-2.2,1.4c1.3-2.6,2.2-5.5,2.4-8.5c0,0,0,0,0,0l2.4-5.6c0.2-0.4,0-0.9-0.4-1c-0.4-0.2-0.9,0-1,0.4l-1,2.2
		c-0.3-3-1.1-5.9-2.4-8.5c0,0,0-0.1,0-0.1l-0.9-6c-0.1-0.4-0.5-0.7-0.9-0.7c-0.4,0.1-0.7,0.5-0.7,0.9l0.4,2.6
		c-1.8-2.3-4-4.4-6.6-5.9c-0.4-0.2-0.9-0.1-1.1,0.3c-0.2,0.4-0.1,0.9,0.3,1.1c2.6,1.6,4.8,3.6,6.5,6l-2.7-1.2
		c-0.4-0.2-0.9,0-1.1,0.4c-0.2,0.4,0,0.9,0.4,1.1l4.8,2.3c1.4,2.7,2.3,5.8,2.4,9l-1.7-2.6c-0.2-0.4-0.7-0.5-1.1-0.2
		c-0.4,0.2-0.5,0.7-0.2,1.1l3,4.5c-0.3,3.9-1.7,7.6-3.8,10.6c-0.1,0.1-0.2,0.2-0.3,0.4c-1.1,1.5-2.4,2.8-3.8,4c2.5-3,4-6.9,4-11.2
		c0-3.4-1-6.6-2.7-9.4l0.3-3.3c0-0.4-0.3-0.8-0.7-0.9c-0.4,0-0.8,0.3-0.9,0.7l-0.1,1.5c-1.2-1.4-2.7-2.7-4.4-3.7
		c-0.4-0.2-0.9-0.1-1.1,0.3c-0.2,0.4-0.1,0.9,0.3,1.1c3.8,2.3,6.3,5.8,7.3,10l-1.1-0.4c-0.4-0.2-0.9,0-1,0.4c-0.2,0.4,0,0.9,0.4,1
		l2,0.8c0.1,0.6,0.1,1.3,0.1,1.9c0,1.8-0.3,3.5-0.9,5.2l-0.8-0.9c-0.3-0.3-0.8-0.4-1.1-0.1c-0.3,0.3-0.4,0.8-0.1,1.1l1.3,1.5
		c-1.1,2.4-2.8,4.4-4.9,6c1.5-2,2.4-4.5,2.4-7.2c0-1.7-0.4-3.4-1.1-4.9l0,0l0.7-2.1c0.1-0.4-0.1-0.9-0.5-1c-0.4-0.1-0.9,0.1-1,0.5
		l-0.3,0.8c-2.2-3.2-5.8-5.2-9.9-5.2c-0.4,0-0.8,0.4-0.8,0.8c0,0.4,0.4,0.8,0.8,0.8c0.4,0,0.8,0,1.2,0.1l-1.7,2.4
		c-0.3,0.4-0.2,0.9,0.2,1.1c0.1,0.1,0.3,0.1,0.5,0.1c0.2,0,0.5-0.1,0.6-0.3l2.1-2.9c4.3,1.3,7.5,5.3,7.5,10c0,2.1-0.6,4.1-1.7,5.8
		l-0.7-1c-0.3-0.4-0.7-0.5-1.1-0.2c-0.4,0.2-0.5,0.7-0.2,1.1l1,1.4c-1,1-2.1,1.9-3.5,2.5c-2.8-1.9-4.9-4.3-6.3-7.3l1.2-1.6
		c0.3-0.4,0.2-0.9-0.2-1.1c-0.4-0.3-0.9-0.2-1.1,0.2l-0.6,0.8c-0.7-2-1-4.2-1.1-6.6c-0.1-5.3,1.4-9.6,1.4-9.6c0.1-0.4-0.1-0.9-0.5-1
		c-0.4-0.1-0.9,0.1-1,0.5c0,0.1-0.8,2.1-1.2,5.2l-1.6-2.1c-0.3-0.4-0.8-0.4-1.1-0.2c-0.4,0.3-0.4,0.8-0.2,1.1l2.5,3.3
		c0,0,0.1,0.1,0.1,0.1c-0.3,4.4,0.2,10,3.6,14.8l-0.4,0.1c-0.4,0.1-0.7,0.5-0.6,0.9c0.1,0.4,0.4,0.6,0.8,0.6c0,0,0.1,0,0.1,0
		l1.2-0.2c0.8,1,1.8,1.9,2.9,2.7c-0.7,0.2-1.4,0.2-2.2,0.2c0,0-0.1,0-0.1,0c0,0-0.1,0-0.1,0c-3.4,0-6.4-1.7-8.3-4.3l0.8-1.1
		c0.3-0.4,0.2-0.9-0.2-1.1c-0.4-0.3-0.9-0.2-1.1,0.2L119-5.9c-0.7-1.4-1.1-3-1.1-4.7c0-2.1,0.6-4.2,1.9-5.9c0.3-0.4,0.2-0.9-0.2-1.1
		c-0.4-0.3-0.9-0.2-1.1,0.2c-0.4,0.5-0.7,1.1-1,1.7l-0.2-0.3c-0.3-0.3-0.8-0.3-1.1,0c-0.3,0.3-0.3,0.8,0,1.1l0.8,0.8
		c-0.4,1.1-0.5,2.3-0.5,3.5c0,2.7,0.9,5.2,2.4,7.2c-3.3-2.5-5.6-6.2-6.2-10.4l2.1-2.7c0.3-0.3,0.2-0.9-0.1-1.1
		c-0.3-0.3-0.9-0.2-1.1,0.1l-1,1.2c0-7.9,5.9-14.7,13.7-15.8c0.4-0.1,0.7-0.5,0.7-0.9c-0.1-0.4-0.5-0.7-0.9-0.7
		c-4.9,0.7-9.2,3.5-11.9,7.3v-1.9c0-0.4-0.4-0.8-0.8-0.8s-0.8,0.4-0.8,0.8v4.7c-1,2.2-1.6,4.7-1.6,7.3c0,0.7,0,1.5,0.1,2.2
		c0,0,0,0.1,0,0.1c0.4,3.3,1.8,6.4,3.9,8.9c-1.4-1.2-2.7-2.5-3.8-4c0-0.1-0.1-0.3-0.3-0.4c-2.1-3.1-3.5-6.7-3.8-10.6l3-4.5
		c0.2-0.4,0.1-0.9-0.2-1.1c-0.4-0.2-0.9-0.1-1.1,0.2l-1.7,2.6c0.2-3.2,1-6.2,2.4-9L114-34c0.4-0.2,0.6-0.7,0.4-1.1
		c-0.2-0.4-0.7-0.6-1.1-0.4l-2.6,1.2c0.7-1,1.6-2,2.5-2.9c0.3-0.3,0.3-0.8,0-1.1c-0.3-0.3-0.8-0.3-1.1,0c-0.9,0.8-1.6,1.7-2.3,2.7
		l0.4-2.6c0.1-0.4-0.2-0.8-0.7-0.9c-0.4-0.1-0.8,0.2-0.9,0.7l-0.9,6c0,0,0,0.1,0,0.1c-1.3,2.6-2.2,5.5-2.4,8.5l-1-2.2
		c-0.2-0.4-0.6-0.6-1-0.4c-0.4,0.2-0.6,0.6-0.4,1l2.4,5.6c0,0,0,0,0,0c0.3,3,1.1,5.9,2.4,8.5l-2.2-1.4c-0.4-0.2-0.9-0.1-1.1,0.2
		c-0.2,0.4-0.1,0.9,0.2,1.1l4.9,3.1c2,2.7,4.6,5,7.5,6.7l-2.6,0c-0.4,0-0.8,0.4-0.8,0.8c0,0.4,0.4,0.8,0.8,0.8h0L120.5,0.1
		C120.5,0.1,120.5,0.1,120.5,0.1z"/>
	<path d="M128.2,1.5l0-0.3l0,0L128.2,1.5z M120.5,0.1l0.1-0.2l0,0l0,0L120.5,0.1z M128.3,1.5V1.2h0L128.3,1.5z M136,0.1l0-0.3l0,0
		l0,0L136,0.1z M136,0.1v-0.3l0,0V0.1z M142.1,0.1v0.3l0,0V0.1z M142.9-0.7h-0.3H142.9z M142.1-1.5v0.3l0,0V-1.5z M139.5-1.5
		l-0.1-0.2l-0.8,0.5l1,0L139.5-1.5z M147-8.2l-0.1-0.2l0,0l0,0L147-8.2z M151.9-11.3l0.1,0.2l0,0L151.9-11.3z M152.2-12.4l-0.2,0.1
		l0,0L152.2-12.4z M151.1-12.6l-0.1-0.2l0,0L151.1-12.6z M148.9-11.3l-0.2-0.1l-0.4,0.8L149-11L148.9-11.3z M151.3-19.8l-0.2-0.1
		l0,0l0,0L151.3-19.8z M151.3-19.8l-0.2-0.1l0,0L151.3-19.8z M153.7-25.4l-0.2-0.1l0,0L153.7-25.4z M153.3-26.4l-0.1,0.2h0
		L153.3-26.4z M152.3-26l0.2,0.1l0,0L152.3-26z M151.3-23.8l-0.2,0l0.5,0.1L151.3-23.8z M148.9-32.3l-0.3,0l0,0.1l0,0.1L148.9-32.3z
		 M148.9-32.4l0.2,0l0,0L148.9-32.4z M148-38.4l-0.2,0l0,0L148-38.4z M147.1-39.1l0,0.2l0,0L147.1-39.1z M146.4-38.2l-0.2,0l0,0
		L146.4-38.2z M146.8-35.6l-0.2,0.2l0.4-0.2L146.8-35.6z M140.2-41.5l-0.1,0.2h0L140.2-41.5z M139.1-41.3l0.2,0.1l0,0L139.1-41.3z
		 M139.4-40.2l0.1-0.2l0,0L139.4-40.2z M145.8-34.2l-0.1,0.2l0.9,0.4l-0.5-0.8L145.8-34.2z M143.2-35.4l0.1-0.2h0L143.2-35.4z
		 M142.1-35l0.2,0.1l0,0L142.1-35z M142.5-34l-0.1,0.2l0,0L142.5-34z M147.4-31.7l0.2-0.1l0-0.1l-0.1,0L147.4-31.7z M149.8-22.8
		l-0.2,0.1l0.5,0.8l0-0.9L149.8-22.8z M148.1-25.3l-0.2,0.1l0,0L148.1-25.3z M147-25.6l0.1,0.2v0L147-25.6z M146.8-24.4l0.2-0.1l0,0
		L146.8-24.4z M149.7-20l0.2,0l0-0.1l0-0.1L149.7-20z M145.9-9.3l0.2,0.2l0,0l0,0L145.9-9.3z M145.6-9l0.2,0.1l0,0l0,0L145.6-9z
		 M141.8-4.9l-0.2-0.2l0.4,0.4L141.8-4.9z M143.1-25.5l-0.2,0l0,0.1l0,0.1L143.1-25.5z M143.4-28.8l-0.2,0v0L143.4-28.8z
		 M142.7-29.7l0-0.2h0L142.7-29.7z M141.8-29l-0.2,0l0,0L141.8-29z M141.7-27.4l-0.2,0.2l0.4,0.5l0.1-0.6L141.7-27.4z M137.3-31.2
		l0.1-0.2l0,0L137.3-31.2z M136.2-30.9l0.2,0.1l0,0L136.2-30.9z M136.5-29.8l0.1-0.2l0,0L136.5-29.8z M143.8-19.8l-0.1,0.2l0.4,0.2
		l-0.1-0.5L143.8-19.8z M142.7-20.3l-0.1,0.2l0,0L142.7-20.3z M141.6-19.9l-0.2-0.1l0,0L141.6-19.9z M142.1-18.8l-0.1,0.2l0,0
		L142.1-18.8z M144.1-18l0.2,0l0-0.1l-0.1-0.1L144.1-18z M143.4-11l-0.2,0.2l0.3,0.3l0.1-0.4L143.4-11z M142.6-11.8l0.2-0.2l0,0
		L142.6-11.8z M141.4-11.9l-0.2-0.2l0,0L141.4-11.9z M141.4-10.8l0.2-0.2l0,0L141.4-10.8z M142.7-9.3l0.2,0.1l0.1-0.1l-0.1-0.1
		L142.7-9.3z M137.8-3.3l-0.2-0.2l0.4,0.4L137.8-3.3z M139.2-15.4l-0.2-0.1l0,0.1l0,0.1L139.2-15.4z M139.2-15.4l0.2,0.1l0,0
		L139.2-15.4z M139.9-17.5l-0.2-0.1l0,0L139.9-17.5z M139.4-18.6l-0.1,0.2l0,0L139.4-18.6z M138.4-18.1l0.2,0.1l0,0L138.4-18.1z
		 M138.1-17.3l-0.2,0.1l0.3,0.4l0.2-0.5L138.1-17.3z M129.4-20.8l0.2,0.1l0.2-0.3l-0.4,0L129.4-20.8z M127.8-18.5l0.2,0.1v0
		L127.8-18.5z M127.9-17.4l-0.1,0.2l0,0L127.9-17.4z M129-17.5l-0.2-0.1l0,0L129-17.5z M131.2-20.5l0.1-0.2l-0.2,0l-0.1,0.1
		L131.2-20.5z M136.9-4.8l-0.2,0.1l0.2,0.3l0.2-0.3L136.9-4.8z M136.2-5.8l0.2-0.1l0,0L136.2-5.8z M135.1-6l0.1,0.2l0,0L135.1-6z
		 M134.9-4.9l-0.2,0.1l0,0L134.9-4.9z M135.9-3.5l0.2,0.2l0.1-0.1l-0.1-0.2L135.9-3.5z M132.4-1l-0.1,0.2l0.1,0.1l0.1-0.1L132.4-1z
		 M126.1-8.3l-0.2-0.1l-0.1,0.1l0.1,0.1L126.1-8.3z M127.3-9.8l0.2,0.1v0L127.3-9.8z M127.1-11l0.1-0.2l0,0L127.1-11z M126-10.8
		l-0.2-0.1l0,0L126-10.8z M125.4-10l-0.2,0.1l0.2,0.5l0.3-0.4L125.4-10z M124.4-16.6l0.3,0l0,0L124.4-16.6z M125.8-26.2l0.2,0.1v0
		L125.8-26.2z M125.3-27.2l0.1-0.2h0L125.3-27.2z M124.3-26.8l0.2,0.1v0L124.3-26.8z M123.1-21.6l-0.2,0.2l0.4,0.5l0.1-0.6
		L123.1-21.6z M121.5-23.7l-0.2,0.2v0L121.5-23.7z M120.4-23.9l-0.2-0.2l0,0L120.4-23.9z M120.2-22.7l-0.2,0.2l0,0L120.2-22.7z
		 M122.8-19.4l0.2-0.2l0,0L122.8-19.4z M122.9-19.3l0.3,0l0-0.1l-0.1-0.1L122.9-19.3z M126.5-4.5l0,0.2l0.4-0.1l-0.2-0.3L126.5-4.5z
		 M126.1-4.5l0-0.2l0,0L126.1-4.5z M125.5-3.5l-0.2,0l0,0L125.5-3.5z M126.4-2.9l0,0.2h0L126.4-2.9z M127.6-3.1l0.2-0.2l-0.1-0.1
		l-0.1,0L127.6-3.1z M130.5-0.4l0.1,0.2l0.5-0.1l-0.4-0.3L130.5-0.4z M128.3-0.1l0,0.3h0L128.3-0.1z M128.2-0.1l0,0.3h0L128.2-0.1z
		 M119.9-4.4l-0.2-0.2l-0.1,0.1l0.1,0.2L119.9-4.4z M120.7-5.5l-0.2-0.2l0,0L120.7-5.5z M120.5-6.6l0.2-0.2l0,0L120.5-6.6z
		 M119.4-6.5l-0.2-0.2h0L119.4-6.5z M119-5.9l-0.2,0.1l0.2,0.4l0.2-0.3L119-5.9z M119.7-16.5l0.2,0.1l0,0L119.7-16.5z M119.5-17.6
		l0.1-0.2l0,0L119.5-17.6z M118.4-17.4l0.2,0.1l0,0L118.4-17.4z M117.4-15.7l-0.2,0.2l0.3,0.3l0.2-0.3L117.4-15.7z M117.2-16
		l-0.2,0.2l0,0L117.2-16z M116.1-16l-0.2-0.2l0,0L116.1-16z M116-14.9l0.2-0.2l0,0L116-14.9z M116.8-14.1L117-14l0-0.1l-0.1-0.1
		L116.8-14.1z M118.7-3.3l-0.2,0.2l0.3-0.3L118.7-3.3z M112.5-13.8l-0.2-0.2l-0.1,0.1l0,0.1L112.5-13.8z M114.5-16.4l-0.2-0.2l0,0
		L114.5-16.4z M114.4-17.5l-0.2,0.2l0,0L114.4-17.5z M113.2-17.4l0.2,0.2h0L113.2-17.4z M112.3-16.1l-0.3,0l0,0.7l0.4-0.6
		L112.3-16.1z M126-31.9l0-0.2l0,0L126-31.9z M126.6-32.8l0.2,0l0,0L126.6-32.8z M125.7-33.5l0,0.2h0L125.7-33.5z M113.9-26.2h-0.3
		v0.8l0.5-0.6L113.9-26.2z M112.3-23.4l0.2,0.1l0-0.1v-0.1H112.3z M110.8-13.9l0.3,0l0,0l0,0L110.8-13.9z M110.8-13.8l0.2,0v0l0,0
		L110.8-13.8z M114.7-4.9l-0.2,0.2l0.4-0.4L114.7-4.9z M110.9-9l-0.2,0.1l0,0l0,0L110.9-9z M110.6-9.3l-0.2,0.1l0,0l0,0L110.6-9.3z
		 M106.8-20l-0.2-0.1l0,0.1l0,0.1L106.8-20z M109.8-24.4l-0.2-0.1l0,0L109.8-24.4z M109.5-25.6l0.1-0.2l0,0L109.5-25.6z M108.4-25.3
		l0.2,0.1v0L108.4-25.3z M106.7-22.8l-0.2,0l0,0.9l0.5-0.8L106.7-22.8z M109.2-31.7l-0.1-0.2l-0.1,0l0,0.1L109.2-31.7z M114-34
		l0.1,0.2l0,0L114-34z M114.4-35l-0.2,0.1v0L114.4-35z M113.3-35.4l-0.1-0.2h0L113.3-35.4z M110.7-34.2l-0.2-0.1l-0.6,0.8l0.9-0.4
		L110.7-34.2z M113.2-37.1l0.2,0.2l0,0L113.2-37.1z M113.2-38.2l-0.2,0.2l0,0L113.2-38.2z M112-38.2l-0.2-0.2h0L112-38.2z
		 M109.7-35.6l-0.2,0l0.4,0.2L109.7-35.6z M110.1-38.2l0.2,0l0,0L110.1-38.2z M109.4-39.1l0-0.2h0L109.4-39.1z M108.5-38.4l-0.2,0
		l0,0L108.5-38.4z M107.6-32.4l-0.2,0l0,0L107.6-32.4z M107.6-32.3l0.2,0.1l0-0.1l0-0.1L107.6-32.3z M105.2-23.8l-0.2,0.1l0.5-0.1
		L105.2-23.8z M104.2-26l-0.2,0.1l0,0L104.2-26z M103.2-26.4l0.1,0.2h0L103.2-26.4z M102.8-25.4l0.2-0.1v0L102.8-25.4z M105.2-19.8
		l0.2-0.1l0,0L105.2-19.8z M105.2-19.8l0.2,0l0,0l0,0L105.2-19.8z M107.6-11.3l-0.1,0.2l0.8,0.5l-0.4-0.8L107.6-11.3z M105.4-12.6
		l0.1-0.2h0L105.4-12.6z M104.3-12.4l0.2,0.1l0,0L104.3-12.4z M104.6-11.3l0.1-0.2l0,0L104.6-11.3z M109.5-8.2l0.2-0.1l0,0l0,0
		L109.5-8.2z M117-1.5v0.3l1,0l-0.8-0.5L117-1.5z M114.4-1.5l0,0.3l0,0L114.4-1.5z M113.6-0.7l-0.3,0L113.6-0.7z M114.4,0.1v0.3h0
		L114.4,0.1z M120.5,0.1v-0.3l0,0V0.1z M128.2,1.2c-2.7,0-5.2-0.5-7.6-1.3l-0.2,0.5c2.4,0.9,5.1,1.3,7.8,1.3L128.2,1.2z M128.2,1.7
		C128.2,1.7,128.2,1.7,128.2,1.7l0-0.5c0,0,0,0,0,0L128.2,1.7z M128.3,1.7C128.3,1.7,128.3,1.7,128.3,1.7l0-0.5c0,0,0,0,0,0V1.7z
		 M135.9-0.1c-2.4,0.9-5,1.3-7.6,1.3v0.5c2.7,0,5.4-0.5,7.8-1.3L135.9-0.1z M136,0.4C136,0.4,136,0.4,136,0.4l0-0.5c0,0,0,0,0,0
		L136,0.4z M136,0.4l6.1,0l0-0.5l-6.1,0L136,0.4z M142.1,0.4L142.1,0.4l0-0.5h0V0.4z M142.1,0.4c0.6,0,1-0.5,1-1l-0.5,0
		c0,0.3-0.2,0.5-0.5,0.5V0.4z M143.2-0.7c0-0.6-0.5-1-1-1.1l0,0.5c0.3,0,0.5,0.2,0.5,0.6L143.2-0.7z M142.1-1.7l-2.6,0l0,0.5l2.6,0
		L142.1-1.7z M146.8-8.3c-2,2.7-4.5,5-7.4,6.6l0.2,0.4c3-1.7,5.6-4,7.6-6.8L146.8-8.3z M151.8-11.5l-4.9,3.1l0.3,0.4l4.9-3.1
		L151.8-11.5z M152-12.3c0.2,0.3,0.1,0.6-0.2,0.8l0.3,0.4c0.5-0.3,0.6-1,0.3-1.4L152-12.3z M151.2-12.4c0.3-0.2,0.6-0.1,0.8,0.2
		l0.4-0.3c-0.3-0.5-1-0.6-1.4-0.3L151.2-12.4z M149-11l2.2-1.4l-0.3-0.4l-2.2,1.4L149-11z M151.1-19.8c-0.3,3-1.1,5.8-2.4,8.4
		l0.4,0.2c1.3-2.6,2.2-5.5,2.4-8.6L151.1-19.8z M151.1-19.9C151.1-19.9,151.1-19.9,151.1-19.9l0.4,0.2c0,0,0,0,0,0L151.1-19.9z
		 M153.5-25.5l-2.4,5.6l0.5,0.2l2.4-5.6L153.5-25.5z M153.2-26.2c0.3,0.1,0.4,0.4,0.3,0.7l0.5,0.2c0.2-0.5,0-1.1-0.6-1.4L153.2-26.2
		z M152.5-25.9c0.1-0.3,0.4-0.4,0.7-0.3l0.2-0.5c-0.5-0.2-1.1,0-1.4,0.6L152.5-25.9z M151.5-23.7l1-2.2l-0.5-0.2l-1,2.2L151.5-23.7z
		 M148.7-32.2c1.3,2.6,2.2,5.4,2.4,8.4l0.5,0c-0.3-3-1.1-6-2.5-8.6L148.7-32.2z M149.1-32.3c0,0,0-0.1,0-0.1l-0.5,0.1c0,0,0,0,0,0.1
		L149.1-32.3z M149.1-32.4l-0.9-6l-0.5,0.1l0.9,6L149.1-32.4z M148.3-38.4c-0.1-0.6-0.6-1-1.2-0.9l0.1,0.5c0.3,0,0.6,0.2,0.6,0.5
		L148.3-38.4z M147.1-39.3c-0.6,0.1-1,0.6-0.9,1.2l0.5-0.1c0-0.3,0.2-0.6,0.5-0.6L147.1-39.3z M146.2-38.2l0.4,2.6l0.5-0.1l-0.4-2.6
		L146.2-38.2z M140.1-41.3c2.6,1.6,4.8,3.6,6.5,5.9l0.4-0.3c-1.8-2.4-4-4.4-6.7-6L140.1-41.3z M139.3-41.1c0.2-0.3,0.5-0.3,0.8-0.2
		l0.3-0.4c-0.5-0.3-1.1-0.1-1.4,0.4L139.3-41.1z M139.5-40.4c-0.3-0.2-0.3-0.5-0.2-0.8l-0.4-0.3c-0.3,0.5-0.1,1.1,0.4,1.4
		L139.5-40.4z M146-34.3c-1.7-2.4-3.9-4.5-6.6-6l-0.3,0.4c2.6,1.6,4.7,3.6,6.4,5.9L146-34.3z M145.9-34.4l-2.7-1.2l-0.2,0.5l2.7,1.2
		L145.9-34.4z M143.3-35.7c-0.5-0.2-1.1,0-1.4,0.5l0.5,0.2c0.1-0.3,0.5-0.4,0.7-0.3L143.3-35.7z M141.9-35.2c-0.2,0.5,0,1.1,0.5,1.4
		l0.2-0.5c-0.3-0.1-0.4-0.5-0.3-0.7L141.9-35.2z M142.4-33.8l4.8,2.3l0.2-0.5l-4.8-2.3L142.4-33.8z M150-22.8
		c-0.2-3.2-1-6.3-2.5-9.1l-0.4,0.2c1.4,2.7,2.2,5.7,2.4,8.8L150-22.8z M147.9-25.2l1.7,2.6l0.4-0.3l-1.7-2.6L147.9-25.2z
		 M147.1-25.4c0.3-0.2,0.6-0.1,0.8,0.2l0.4-0.3c-0.3-0.5-1-0.6-1.5-0.3L147.1-25.4z M147-24.6c-0.2-0.3-0.1-0.6,0.2-0.8l-0.3-0.4
		c-0.5,0.3-0.6,1-0.3,1.5L147-24.6z M150-20.1l-3-4.5l-0.4,0.3l3,4.5L150-20.1z M146.1-9.2c2.2-3.1,3.6-6.8,3.9-10.8l-0.5,0
		c-0.3,3.9-1.7,7.5-3.8,10.5L146.1-9.2z M145.9-8.9c0-0.1,0.1-0.2,0.2-0.3l-0.3-0.4c-0.2,0.1-0.3,0.3-0.4,0.5L145.9-8.9z M142-4.7
		c1.5-1.2,2.8-2.5,3.9-4.1l-0.4-0.3c-1.1,1.5-2.4,2.8-3.8,4L142-4.7z M142-4.8c2.5-3.1,4.1-7,4.1-11.3h-0.5c0,4.2-1.5,8-4,11
		L142-4.8z M146.1-16.1c0-3.4-1-6.7-2.7-9.5l-0.4,0.3c1.7,2.7,2.7,5.9,2.7,9.2H146.1z M143.4-25.5l0.3-3.3l-0.5,0l-0.3,3.3
		L143.4-25.5z M143.7-28.8c0.1-0.6-0.4-1.1-1-1.1l0,0.5c0.3,0,0.5,0.3,0.5,0.6L143.7-28.8z M142.7-29.9c-0.6,0-1.1,0.4-1.1,1l0.5,0
		c0-0.3,0.3-0.5,0.6-0.5L142.7-29.9z M141.6-29l-0.1,1.5l0.5,0l0.1-1.5L141.6-29z M141.9-27.6c-1.2-1.5-2.7-2.7-4.5-3.8l-0.3,0.4
		c1.7,1,3.1,2.2,4.3,3.7L141.9-27.6z M137.4-31.4c-0.5-0.3-1.1-0.1-1.4,0.4l0.4,0.3c0.2-0.3,0.5-0.3,0.8-0.2L137.4-31.4z M136-31
		c-0.3,0.5-0.1,1.1,0.4,1.4l0.3-0.4c-0.3-0.2-0.3-0.5-0.2-0.8L136-31z M136.4-29.6c3.7,2.2,6.2,5.7,7.2,9.8l0.5-0.1
		c-1-4.2-3.6-7.8-7.4-10.1L136.4-29.6z M143.9-20.1l-1.1-0.4l-0.2,0.5l1.1,0.4L143.9-20.1z M142.8-20.5c-0.5-0.2-1.1,0-1.4,0.6
		l0.5,0.2c0.1-0.3,0.4-0.4,0.7-0.3L142.8-20.5z M141.4-19.9c-0.2,0.5,0,1.1,0.6,1.4l0.2-0.5c-0.3-0.1-0.4-0.4-0.3-0.7L141.4-19.9z
		 M142-18.6l2,0.8l0.2-0.5l-2-0.8L142-18.6z M143.9-18c0.1,0.6,0.1,1.2,0.1,1.9h0.5c0-0.6,0-1.3-0.1-1.9L143.9-18z M144-16.1
		c0,1.8-0.3,3.5-0.8,5.1l0.5,0.2c0.6-1.6,0.9-3.4,0.9-5.2H144z M143.6-11.1l-0.8-0.9l-0.4,0.3l0.8,0.9L143.6-11.1z M142.8-12
		c-0.4-0.4-1-0.5-1.5-0.1l0.3,0.4c0.2-0.2,0.6-0.2,0.8,0L142.8-12z M141.3-12.1c-0.4,0.4-0.5,1-0.1,1.5l0.4-0.3
		c-0.2-0.2-0.2-0.6,0-0.8L141.3-12.1z M141.2-10.6l1.3,1.5l0.4-0.3l-1.3-1.5L141.2-10.6z M142.5-9.4c-1.1,2.3-2.8,4.3-4.8,5.9
		l0.3,0.4c2.1-1.6,3.8-3.7,4.9-6.1L142.5-9.4z M138-3.2c1.5-2,2.4-4.6,2.4-7.3H140c0,2.6-0.9,5.1-2.3,7L138-3.2z M140.5-10.5
		c0-1.8-0.4-3.5-1.1-5l-0.5,0.2c0.7,1.5,1,3.1,1,4.8H140.5z M139.4-15.3L139.4-15.3l-0.5-0.2l0,0L139.4-15.3z M139.4-15.4l0.7-2.1
		l-0.5-0.2l-0.7,2.1L139.4-15.4z M140.2-17.5c0.2-0.5-0.1-1.1-0.6-1.3l-0.2,0.5c0.3,0.1,0.4,0.4,0.3,0.7L140.2-17.5z M139.5-18.8
		c-0.5-0.2-1.1,0.1-1.3,0.6l0.5,0.2c0.1-0.3,0.4-0.4,0.7-0.3L139.5-18.8z M138.2-18.2l-0.3,0.8l0.5,0.2l0.3-0.8L138.2-18.2z
		 M138.3-17.4c-2.2-3.2-5.9-5.3-10.1-5.3v0.5c4,0,7.6,2,9.7,5.1L138.3-17.4z M128.3-22.7c-0.6,0-1,0.5-1,1h0.5
		c0-0.3,0.2-0.5,0.5-0.5V-22.7z M127.2-21.7c0,0.6,0.5,1,1,1v-0.5c-0.3,0-0.5-0.2-0.5-0.5H127.2z M128.3-20.7c0.4,0,0.8,0,1.2,0.1
		l0.1-0.5c-0.4,0-0.8-0.1-1.2-0.1V-20.7z M129.2-21l-1.7,2.4l0.4,0.3l1.7-2.4L129.2-21z M127.5-18.6c-0.3,0.5-0.2,1.1,0.2,1.5
		l0.3-0.4c-0.2-0.2-0.3-0.5-0.1-0.8L127.5-18.6z M127.8-17.2c0.2,0.1,0.4,0.2,0.6,0.2v-0.5c-0.1,0-0.2,0-0.3-0.1L127.8-17.2z
		 M128.4-17c0.3,0,0.6-0.2,0.9-0.4l-0.4-0.3c-0.1,0.1-0.3,0.2-0.4,0.2V-17z M129.3-17.4l2.1-2.9l-0.4-0.3l-2.1,2.9L129.3-17.4z
		 M131.1-20.2c4.2,1.2,7.3,5.1,7.3,9.7h0.5c0-4.8-3.2-8.9-7.7-10.2L131.1-20.2z M138.4-10.5c0,2.1-0.6,4-1.7,5.6l0.4,0.3
		c1.1-1.7,1.8-3.7,1.8-5.9H138.4z M137.1-4.9l-0.7-1L136-5.6l0.7,1L137.1-4.9z M136.4-5.9c-0.3-0.5-1-0.6-1.5-0.3l0.3,0.4
		c0.3-0.2,0.6-0.1,0.8,0.1L136.4-5.9z M134.9-6.2c-0.5,0.3-0.6,1-0.3,1.5l0.4-0.3c-0.2-0.3-0.1-0.6,0.1-0.8L134.9-6.2z M134.7-4.7
		l1,1.4l0.4-0.3l-1-1.4L134.7-4.7z M135.7-3.6c-0.9,1-2.1,1.8-3.4,2.4l0.2,0.5c1.4-0.6,2.6-1.5,3.5-2.5L135.7-3.6z M132.5-1.2
		c-2.8-1.9-4.9-4.3-6.2-7.2l-0.5,0.2c1.4,3,3.5,5.4,6.4,7.4L132.5-1.2z M126.3-8.1l1.2-1.6l-0.4-0.3l-1.2,1.6L126.3-8.1z M127.5-9.7
		c0.3-0.5,0.2-1.1-0.2-1.5l-0.3,0.4c0.2,0.2,0.3,0.5,0.1,0.8L127.5-9.7z M127.3-11.2c-0.5-0.3-1.1-0.2-1.5,0.2l0.4,0.3
		c0.2-0.2,0.5-0.3,0.8-0.1L127.3-11.2z M125.8-10.9l-0.6,0.8l0.4,0.3l0.6-0.8L125.8-10.9z M125.7-10.1c-0.7-2-1-4.1-1.1-6.5l-0.5,0
		c0,2.4,0.4,4.6,1.1,6.6L125.7-10.1z M124.6-16.6c-0.1-2.6,0.3-5,0.7-6.7c0.2-0.9,0.4-1.6,0.5-2.1c0.1-0.2,0.1-0.4,0.2-0.6
		c0-0.1,0-0.1,0-0.1c0,0,0,0,0,0c0,0,0,0,0,0c0,0,0,0,0,0l-0.5-0.2c0,0.1-1.6,4.4-1.5,9.7L124.6-16.6z M126-26.1
		c0.2-0.5-0.1-1.1-0.6-1.3l-0.2,0.5c0.3,0.1,0.4,0.4,0.3,0.7L126-26.1z M125.4-27.5c-0.5-0.2-1.1,0.1-1.3,0.6l0.5,0.2
		c0.1-0.3,0.4-0.4,0.7-0.3L125.4-27.5z M124.1-26.8c0,0.1-0.8,2.2-1.2,5.2l0.5,0.1c0.4-3,1.2-5.1,1.2-5.1L124.1-26.8z M123.3-21.7
		l-1.6-2.1l-0.4,0.3l1.6,2.1L123.3-21.7z M121.7-23.9c-0.3-0.5-1-0.6-1.5-0.2l0.3,0.4c0.2-0.2,0.6-0.1,0.8,0.1L121.7-23.9z
		 M120.2-24.1c-0.5,0.3-0.5,1-0.2,1.5l0.4-0.3c-0.2-0.2-0.1-0.6,0.1-0.8L120.2-24.1z M120-22.6l2.5,3.3l0.4-0.3l-2.5-3.3L120-22.6z
		 M122.6-19.3c0,0.1,0.1,0.1,0.1,0.2l0.3-0.4c0,0-0.1-0.1-0.1-0.1L122.6-19.3z M122.6-19.3c-0.3,4.4,0.2,10.1,3.6,14.9l0.4-0.3
		c-3.3-4.7-3.9-10.3-3.6-14.6L122.6-19.3z M126.4-4.8l-0.4,0.1l0.1,0.5l0.4-0.1L126.4-4.8z M126.1-4.7c-0.6,0.1-0.9,0.7-0.8,1.2
		l0.5-0.1c-0.1-0.3,0.1-0.6,0.4-0.6L126.1-4.7z M125.2-3.5c0.1,0.5,0.5,0.9,1,0.9v-0.5c-0.3,0-0.5-0.2-0.5-0.4L125.2-3.5z
		 M126.3-2.6c0.1,0,0.1,0,0.2,0l-0.1-0.5c0,0-0.1,0-0.1,0V-2.6z M126.5-2.6l1.2-0.2l-0.1-0.5l-1.2,0.2L126.5-2.6z M127.4-2.9
		c0.8,1,1.8,1.9,3,2.8l0.3-0.4c-1.1-0.8-2.1-1.7-2.9-2.7L127.4-2.9z M130.4-0.6c-0.7,0.2-1.4,0.2-2.1,0.2l0,0.5
		c0.8,0,1.5-0.1,2.2-0.3L130.4-0.6z M128.3,0.1C128.3,0.1,128.3,0.1,128.3,0.1l0.1-0.5c0,0-0.1,0-0.1,0V0.1z M128.2,0.1
		C128.2,0.1,128.2,0.1,128.2,0.1l0.1-0.5c0,0-0.1,0-0.1,0L128.2,0.1z M128.2-0.4c-3.3,0-6.3-1.7-8.1-4.2l-0.4,0.3
		c1.9,2.6,5,4.3,8.5,4.4L128.2-0.4z M120.1-4.2l0.8-1.1l-0.4-0.3l-0.8,1.1L120.1-4.2z M120.9-5.3c0.4-0.5,0.3-1.1-0.2-1.5l-0.3,0.4
		c0.2,0.2,0.3,0.5,0.1,0.8L120.9-5.3z M120.7-6.8c-0.5-0.4-1.1-0.3-1.5,0.2l0.4,0.3c0.2-0.2,0.5-0.3,0.8-0.1L120.7-6.8z M119.2-6.6
		L118.8-6l0.4,0.3l0.5-0.6L119.2-6.6z M119.2-6c-0.7-1.4-1.1-2.9-1.1-4.5h-0.5c0,1.7,0.4,3.3,1.1,4.8L119.2-6z M118.1-10.5
		c0-2.1,0.6-4.1,1.8-5.8l-0.4-0.3c-1.2,1.8-1.9,3.9-1.9,6.1H118.1z M119.9-16.3c0.3-0.5,0.2-1.1-0.3-1.5l-0.3,0.4
		c0.2,0.2,0.3,0.5,0.1,0.8L119.9-16.3z M119.7-17.8c-0.5-0.3-1.1-0.2-1.5,0.3l0.4,0.3c0.2-0.2,0.5-0.3,0.8-0.1L119.7-17.8z
		 M118.2-17.5c-0.4,0.5-0.7,1.1-1,1.7l0.5,0.2c0.3-0.6,0.6-1.1,1-1.6L118.2-17.5z M117.6-15.9l-0.2-0.3l-0.4,0.3l0.2,0.3L117.6-15.9
		z M117.4-16.1c-0.4-0.4-1.1-0.4-1.5,0l0.3,0.4c0.2-0.2,0.6-0.2,0.8,0L117.4-16.1z M115.9-16.2c-0.4,0.4-0.4,1.1,0,1.5l0.4-0.3
		c-0.2-0.2-0.2-0.6,0-0.8L115.9-16.2z M115.9-14.7l0.8,0.8l0.4-0.3l-0.8-0.8L115.9-14.7z M116.6-14.1c-0.4,1.2-0.5,2.4-0.5,3.6h0.5
		c0-1.2,0.2-2.4,0.5-3.5L116.6-14.1z M116-10.5c0,2.7,0.9,5.3,2.4,7.3l0.4-0.3c-1.5-2-2.3-4.4-2.3-7H116z M118.8-3.5
		c-3.2-2.4-5.5-6.1-6.1-10.3l-0.5,0.1c0.6,4.3,3,8.1,6.3,10.6L118.8-3.5z M112.7-13.6l2.1-2.7l-0.4-0.3l-2.1,2.7L112.7-13.6z
		 M114.7-16.3c0.4-0.5,0.3-1.1-0.2-1.5l-0.3,0.4c0.2,0.2,0.3,0.5,0.1,0.8L114.7-16.3z M114.5-17.7c-0.5-0.4-1.1-0.3-1.5,0.2l0.4,0.3
		c0.2-0.2,0.5-0.3,0.8-0.1L114.5-17.7z M113-17.5l-1,1.2l0.4,0.3l1-1.2L113-17.5z M112.5-16.1c0-7.8,5.8-14.4,13.5-15.5l-0.1-0.5
		c-7.9,1.1-13.9,8-13.9,16L112.5-16.1z M126-31.7c0.6-0.1,1-0.6,0.9-1.2l-0.5,0.1c0,0.3-0.2,0.6-0.5,0.6L126-31.7z M126.9-32.9
		c-0.1-0.6-0.6-1-1.2-0.9l0.1,0.5c0.3,0,0.6,0.2,0.6,0.5L126.9-32.9z M125.7-33.7c-5,0.7-9.3,3.5-12,7.4l0.4,0.3
		c2.7-3.8,6.8-6.5,11.7-7.2L125.7-33.7z M114.1-26.2v-1.9h-0.5v1.9H114.1z M114.1-28.1c0-0.6-0.5-1-1-1v0.5c0.3,0,0.5,0.2,0.5,0.5
		H114.1z M113.1-29.1c-0.6,0-1,0.5-1,1h0.5c0-0.3,0.2-0.5,0.5-0.5V-29.1z M112-28.1v4.7h0.5v-4.7H112z M112.1-23.5
		c-1,2.3-1.6,4.8-1.6,7.4h0.5c0-2.5,0.6-5,1.6-7.2L112.1-23.5z M110.4-16.1c0,0.7,0,1.5,0.1,2.2l0.5-0.1c-0.1-0.7-0.1-1.4-0.1-2.2
		H110.4z M110.6-13.9c0,0,0,0.1,0,0.1l0.5-0.1c0,0,0,0,0-0.1L110.6-13.9z M110.6-13.8c0.4,3.4,1.8,6.5,3.9,9l0.4-0.3
		c-2-2.4-3.4-5.5-3.8-8.8L110.6-13.8z M110.7-8.8c1.1,1.5,2.4,2.9,3.9,4.1l0.3-0.4c-1.4-1.2-2.7-2.5-3.8-4L110.7-8.8z M110.4-9.1
		c0.1,0.1,0.2,0.2,0.2,0.3l0.5-0.2c-0.1-0.2-0.2-0.4-0.4-0.5L110.4-9.1z M106.5-19.9c0.3,4,1.7,7.7,3.9,10.8l0.4-0.3
		c-2.1-3-3.5-6.6-3.8-10.5L106.5-19.9z M107-19.8l3-4.5l-0.4-0.3l-3,4.5L107-19.8z M110-24.3c0.3-0.5,0.2-1.1-0.3-1.5l-0.3,0.4
		c0.3,0.2,0.3,0.5,0.2,0.8L110-24.3z M109.7-25.8c-0.5-0.3-1.1-0.2-1.5,0.3l0.4,0.3c0.2-0.3,0.5-0.3,0.8-0.2L109.7-25.8z
		 M108.2-25.5l-1.7,2.6l0.4,0.3l1.7-2.6L108.2-25.5z M108.9-31.9c-1.5,2.8-2.3,5.9-2.5,9.1l0.5,0c0.2-3.1,1-6.1,2.4-8.9L108.9-31.9z
		 M109.3-31.5l4.8-2.2l-0.2-0.5l-4.8,2.2L109.3-31.5z M114.1-33.8c0.5-0.2,0.8-0.9,0.5-1.4l-0.5,0.2c0.1,0.3,0,0.6-0.3,0.7
		L114.1-33.8z M114.6-35.2c-0.2-0.5-0.9-0.8-1.4-0.5l0.2,0.5c0.3-0.1,0.6,0,0.7,0.3L114.6-35.2z M113.2-35.7l-2.6,1.2l0.2,0.5
		l2.6-1.2L113.2-35.7z M113-37.3c-0.9,0.9-1.8,1.9-2.5,2.9l0.4,0.3c0.7-1,1.5-2,2.4-2.9L113-37.3z M113-38.1c0.2,0.2,0.2,0.6,0,0.8
		l0.4,0.4c0.4-0.4,0.4-1.1,0-1.5L113-38.1z M112.2-38.1c0.2-0.2,0.6-0.2,0.8,0l0.4-0.3c-0.4-0.4-1.1-0.4-1.5,0L112.2-38.1z
		 M109.9-35.4c0.7-0.9,1.5-1.8,2.3-2.6l-0.4-0.4c-0.9,0.8-1.7,1.7-2.4,2.7L109.9-35.4z M110-35.5l0.4-2.6l-0.5-0.1l-0.4,2.6
		L110-35.5z M110.3-38.2c0.1-0.6-0.3-1.1-0.9-1.2l-0.1,0.5c0.3,0,0.5,0.3,0.5,0.6L110.3-38.2z M109.4-39.3c-0.6-0.1-1.1,0.3-1.2,0.9
		l0.5,0.1c0-0.3,0.3-0.5,0.6-0.5L109.4-39.3z M108.3-38.4l-0.9,6l0.5,0.1l0.9-6L108.3-38.4z M107.4-32.4c0,0.1,0,0.1,0,0.2l0.5,0
		c0,0,0-0.1,0-0.1L107.4-32.4z M105.4-23.8c0.3-3,1.1-5.8,2.4-8.4l-0.4-0.2c-1.4,2.7-2.2,5.6-2.5,8.6L105.4-23.8z M105.4-23.9
		l-1-2.2l-0.5,0.2l1,2.2L105.4-23.9z M104.5-26.1c-0.2-0.5-0.8-0.8-1.4-0.6l0.2,0.5c0.3-0.1,0.6,0,0.7,0.3L104.5-26.1z M103.1-26.7
		c-0.5,0.2-0.8,0.8-0.6,1.4l0.5-0.2c-0.1-0.3,0-0.6,0.3-0.7L103.1-26.7z M102.5-25.3l2.4,5.6l0.5-0.2l-2.4-5.6L102.5-25.3z
		 M104.9-19.7C104.9-19.7,104.9-19.7,104.9-19.7l0.5-0.2c0,0,0,0,0,0L104.9-19.7z M107.8-11.4c-1.3-2.6-2.1-5.4-2.4-8.4l-0.5,0
		c0.3,3.1,1.1,6,2.4,8.6L107.8-11.4z M105.3-12.4l2.2,1.4l0.3-0.4l-2.2-1.4L105.3-12.4z M104.5-12.3c0.2-0.3,0.5-0.3,0.8-0.2
		l0.3-0.4c-0.5-0.3-1.1-0.2-1.4,0.3L104.5-12.3z M104.7-11.5c-0.3-0.2-0.3-0.5-0.2-0.8l-0.4-0.3c-0.3,0.5-0.2,1.1,0.3,1.4
		L104.7-11.5z M109.6-8.4l-4.9-3.1l-0.3,0.4l4.9,3.1L109.6-8.4z M117.1-1.7c-2.9-1.6-5.5-3.9-7.4-6.6L109.3-8c2,2.8,4.6,5.1,7.6,6.8
		L117.1-1.7z M117-1.7l-2.6,0l0,0.5l2.6,0L117-1.7z M114.4-1.7c-0.6,0-1,0.5-1,1.1l0.5,0c0-0.3,0.2-0.5,0.5-0.6L114.4-1.7z
		 M113.3-0.7c0,0.6,0.5,1,1,1v-0.5c-0.3,0-0.5-0.2-0.5-0.5L113.3-0.7z M114.4,0.4L114.4,0.4l0-0.5h0V0.4z M114.4,0.4l6.1,0l0-0.5
		l-6.1,0L114.4,0.4z M120.5,0.4C120.5,0.4,120.5,0.4,120.5,0.4l0-0.5c0,0,0,0,0,0L120.5,0.4z"/>
	
		<linearGradient id="SVGID_1_" gradientUnits="userSpaceOnUse" x1="132.7578" y1="9.2665" x2="147.0348" y2="-54.1726" gradientTransform="matrix(1 0 0 -1 0 -228)">
		<stop  offset="0" style="stop-color:#9C1E26"/>
		<stop  offset="1" style="stop-color:#D32F39"/>
	</linearGradient>
	<path class="st7" d="M170.1-218.8c7.3,16.7-0.3,36.1-17,43.4c-16.7,7.3-36.1-0.3-43.4-17c-7.3-16.7,0.3-36.1,17-43.4
		C143.4-243,162.8-235.4,170.1-218.8z"/>
	
		<linearGradient id="SVGID_2_" gradientUnits="userSpaceOnUse" x1="121.0311" y1="-9.9687" x2="123.2272" y2="-19.7285" gradientTransform="matrix(1 0 0 -1 0 -228)">
		<stop  offset="0" style="stop-color:#9C1E26"/>
		<stop  offset="1" style="stop-color:#D32F39"/>
	</linearGradient>
	<path class="st8" d="M126.8-215.2c1.1,2.6,0,5.6-2.6,6.7c-2.6,1.1-5.6,0-6.7-2.6c-1.1-2.6,0-5.6,2.6-6.7
		C122.7-218.9,125.7-217.8,126.8-215.2z"/>
	
		<linearGradient id="SVGID_3_" gradientUnits="userSpaceOnUse" x1="167.8187" y1="-23.1756" x2="169.2177" y2="-28.0115" gradientTransform="matrix(1 0 0 -1 0 -228)">
		<stop  offset="0" style="stop-color:#9C1E26"/>
		<stop  offset="1" style="stop-color:#D32F39"/>
	</linearGradient>
	<path class="st9" d="M169.4-204.9c1,0.3,1.4,1.8,0.9,3.1c-0.5,1.4-1.7,2.2-2.7,1.9c-1-0.3-1.4-1.8-0.9-3.1
		C167.2-204.4,168.4-205.3,169.4-204.9z"/>
	
		<linearGradient id="SVGID_4_" gradientUnits="userSpaceOnUse" x1="142.101" y1="-36.2356" x2="144.666" y2="-49.591" gradientTransform="matrix(1 0 0 -1 0 -228)">
		<stop  offset="0" style="stop-color:#9C1E26"/>
		<stop  offset="1" style="stop-color:#D32F39"/>
	</linearGradient>
	<path class="st10" d="M151.3-186.6c0.7,3.7-2.3,7.4-6.6,8.2c-4.4,0.8-8.5-1.5-9.2-5.2c-0.7-3.7,2.3-7.4,6.6-8.2
		C146.5-192.6,150.6-190.3,151.3-186.6z"/>
	
		<linearGradient id="SVGID_5_" gradientUnits="userSpaceOnUse" x1="105.0174" y1="-28.6948" x2="110.0764" y2="-37.4565" gradientTransform="matrix(1 0 0 -1 0 -228)">
		<stop  offset="0" style="stop-color:#9C1E26"/>
		<stop  offset="1" style="stop-color:#D32F39"/>
	</linearGradient>
	<path class="st11" d="M105.8-200.7c0.8-0.2,2.2,2.2,3.2,5.3c1,3.2,1.1,6,0.3,6.2c-0.8,0.2-2.2-2.2-3.2-5.3
		C105.2-197.7,105-200.4,105.8-200.7z"/>
	
		<linearGradient id="SVGID_6_" gradientUnits="userSpaceOnUse" x1="106.4208" y1="-27.8263" x2="110.7218" y2="-37.7009" gradientTransform="matrix(1 0 0 -1 0 -228)">
		<stop  offset="0" style="stop-color:#9C1E26"/>
		<stop  offset="1" style="stop-color:#D32F39"/>
	</linearGradient>
	<path class="st12" d="M106.8-201c1.3-0.4,3.2,1.8,4.2,5c1,3.2,0.7,6.1-0.7,6.5c-1.3,0.4-3.2-1.8-4.2-5
		C105.2-197.7,105.5-200.6,106.8-201z"/>
	
		<linearGradient id="SVGID_7_" gradientUnits="userSpaceOnUse" x1="104.9815" y1="-30.3256" x2="108.8185" y2="-35.7987" gradientTransform="matrix(1 0 0 -1 0 -228)">
		<stop  offset="0" style="stop-color:#9C1E26"/>
		<stop  offset="1" style="stop-color:#D32F39"/>
	</linearGradient>
	<path class="st13" d="M105.7-199c0.2-0.1,1,1.7,1.6,3.9c0.7,2.2,1,4.1,0.8,4.2c-0.2,0.1-1-1.7-1.6-3.9
		C105.8-197,105.4-198.9,105.7-199z"/>
	
		<linearGradient id="SVGID_8_" gradientUnits="userSpaceOnUse" x1="139.5915" y1="-53.5906" x2="139.6385" y2="-55.188" gradientTransform="matrix(1 0 0 -1 0 -228)">
		<stop  offset="0" style="stop-color:#9C1E26"/>
		<stop  offset="1" style="stop-color:#D32F39"/>
	</linearGradient>
	<path class="st14" d="M133.6-173.7c0-0.4,2.8-0.7,6.1-0.7c3.3,0.1,6,0.5,6,0.9c0,0.4-2.8,0.7-6.1,0.7
		C136.2-172.9,133.6-173.3,133.6-173.7z"/>
	
		<linearGradient id="SVGID_9_" gradientUnits="userSpaceOnUse" x1="139.586" y1="-52.4567" x2="139.724" y2="-55.1873" gradientTransform="matrix(1 0 0 -1 0 -228)">
		<stop  offset="0" style="stop-color:#9C1E26"/>
		<stop  offset="1" style="stop-color:#D32F39"/>
	</linearGradient>
	<path class="st15" d="M133.6-174.3c0.1-0.7,2.8-1.3,6.1-1.2c3.3,0.1,6,0.7,5.9,1.5c-0.1,0.7-2.8,1.3-6.1,1.2
		C136.2-172.9,133.6-173.6,133.6-174.3z"/>
	
		<linearGradient id="SVGID_10_" gradientUnits="userSpaceOnUse" x1="139.3875" y1="-54.4663" x2="139.3935" y2="-54.9563" gradientTransform="matrix(1 0 0 -1 0 -228)">
		<stop  offset="0" style="stop-color:#9C1E26"/>
		<stop  offset="1" style="stop-color:#D32F39"/>
	</linearGradient>
	<path class="st16" d="M135.2-173.4c0-0.1,1.9-0.2,4.2-0.1c2.3,0,4.2,0.2,4.2,0.3s-1.9,0.2-4.2,0.1
		C137-173.1,135.2-173.2,135.2-173.4z"/>
	
		<linearGradient id="SVGID_11_" gradientUnits="userSpaceOnUse" x1="168.236" y1="-32.0714" x2="171.816" y2="-40.2468" gradientTransform="matrix(1 0 0 -1 0 -228)">
		<stop  offset="0" style="stop-color:#9C1E26"/>
		<stop  offset="1" style="stop-color:#D32F39"/>
	</linearGradient>
	<path class="st17" d="M167.8-187.1c-0.6-0.3-0.2-2.7,1-5.3c1.2-2.6,2.7-4.6,3.4-4.3c0.6,0.3,0.2,2.7-1,5.3
		C170-188.7,168.5-186.8,167.8-187.1z"/>
	
		<linearGradient id="SVGID_12_" gradientUnits="userSpaceOnUse" x1="167.5733" y1="-31.4316" x2="170.7753" y2="-40.1118" gradientTransform="matrix(1 0 0 -1 0 -228)">
		<stop  offset="0" style="stop-color:#9C1E26"/>
		<stop  offset="1" style="stop-color:#D32F39"/>
	</linearGradient>
	<path class="st18" d="M167-187.4c-1.1-0.5-1-3.1,0.2-5.7c1.2-2.6,3.1-4.4,4.2-3.9c1.1,0.5,1,3.1-0.2,5.7
		C170-188.7,168.1-186.9,167-187.4z"/>
	<path class="st6" d="M168.9-188.1c-0.2-0.1,0.3-1.7,1.2-3.5c0.8-1.9,1.7-3.3,1.9-3.2c0.2,0.1-0.3,1.7-1.2,3.5
		C169.9-189.4,169.1-188,168.9-188.1z"/>
	
		<linearGradient id="SVGID_13_" gradientUnits="userSpaceOnUse" x1="165.3779" y1="0.9974" x2="166.9689" y2="-4.0551" gradientTransform="matrix(1 0 0 -1 0 -228)">
		<stop  offset="0" style="stop-color:#9C1E26"/>
		<stop  offset="1" style="stop-color:#D32F39"/>
	</linearGradient>
	<path class="st19" d="M168-223.8c-0.4,0.2-1.5-0.8-2.5-2.3c-1-1.5-1.6-2.9-1.2-3.2c0.4-0.2,1.5,0.8,2.5,2.3
		C167.9-225.4,168.4-224,168-223.8z"/>
	
		<linearGradient id="SVGID_14_" gradientUnits="userSpaceOnUse" x1="164.9246" y1="0.7693" x2="166.4586" y2="-4.484" gradientTransform="matrix(1 0 0 -1 0 -228)">
		<stop  offset="0" style="stop-color:#9C1E26"/>
		<stop  offset="1" style="stop-color:#D32F39"/>
	</linearGradient>
	<path class="st20" d="M167.5-223.4c-0.6,0.4-2-0.4-3-1.9c-1-1.5-1.3-3.1-0.7-3.5s2,0.4,3,1.9C167.9-225.4,168.2-223.9,167.5-223.4z
		"/>
	<path class="st6" d="M167.8-224.7c-0.1,0.1-0.8-0.7-1.5-1.8c-0.7-1-1.2-2-1.1-2c0.1-0.1,0.8,0.7,1.5,1.8
		C167.4-225.7,167.9-224.7,167.8-224.7z"/>
	
		<linearGradient id="SVGID_15_" gradientUnits="userSpaceOnUse" x1="143.63" y1="-14.969" x2="145.002" y2="-21.0674" gradientTransform="matrix(1 0 0 -1 0 -228)">
		<stop  offset="0" style="stop-color:#9C1E26"/>
		<stop  offset="1" style="stop-color:#D32F39"/>
	</linearGradient>
	<path class="st21" d="M147.5-210c0,1.8-1.4,3.2-3.2,3.2c-1.8,0-3.2-1.4-3.2-3.2s1.4-3.2,3.2-3.2C146.1-213.2,147.5-211.7,147.5-210
		z"/>
	<path class="st6" d="M120.1-186.8c-0.8,0.7-2.4,0.2-3.5-1.2c-1.1-1.3-1.4-3-0.6-3.6c0.8-0.7,2.4-0.2,3.5,1.2
		C120.6-189.1,120.9-187.5,120.1-186.8z"/>
	
		<linearGradient id="SVGID_16_" gradientUnits="userSpaceOnUse" x1="160.75" y1="-36.2031" x2="161.783" y2="-41.0977" gradientTransform="matrix(1 0 0 -1 0 -228)">
		<stop  offset="0" style="stop-color:#9C1E26"/>
		<stop  offset="1" style="stop-color:#D32F39"/>
	</linearGradient>
	<path class="st22" d="M163.7-191.4c0.7,0.8,0.2,2.4-1.1,3.5c-1.3,1.2-2.9,1.4-3.6,0.7c-0.7-0.8-0.2-2.4,1.1-3.5
		C161.3-191.9,163-192.2,163.7-191.4z"/>
	<path class="st23" d="M-86-68c0.4-0.5,0.7-3.1,0.8-3.8c0.3-1.1,0.9-8.4,0.9-10.6c0-1.2,0.1-2.6,0.5-3.4c0.7-1.3,2.1-3.9,3.3-4.5
		c-0.7,0-2.8,1.3-3.3,1.7c-0.6,0.4-1.1,1.2-1.4,1.8c-0.4,0.7-0.5,1.6-0.6,2.4c-0.4,1.8-0.3,9.6-0.3,11.2C-86.3-71.5-86.1-68-86-68z"
		/>
	<path class="st23" d="M-111.8-53.2c0.4-1.3,0.1-6.7,0.4-8.9c0.1-1.1,0.4-2.3,0.8-3c0.7-1.3,2.9-2.9,4.1-3.5c-0.7,0-2.8,1.3-3.3,1.7
		c-1.4,1.1-1.7,2-2.1,3.6c-0.2,0.9-0.3,3.5-0.3,5C-112.1-56.7-111.9-53.3-111.8-53.2z"/>
	<path class="st23" d="M-56.3-66.7c0.2-2.1,0.1-4.4,0.8-6.4c0.5-1.3,2-2.9,2.8-3.5c-0.5,0-1.9,1.3-2.3,1.7c-1.1,1.3-1.4,2.8-1.4,4.7
		C-56.3-68.7-56.4-66.7-56.3-66.7z"/>
</g>
<path class="st24" d="M104-82.5c-0.1,0-0.2,0.1-0.2,0.2c0,0.2,0.2,1,0.7,1.5c0.1,0.2,0.3,0.3,0.5,0.4c-0.3,0.2-0.6,0.3-1,0.3
	c0,0,0,0,0,0c-0.1,0-0.2,0.1-0.2,0.2c0,0.1,0.1,0.2,0.2,0.2h0c0.5,0,1-0.2,1.4-0.5c0.4-0.2,0.7-0.4,1.1-0.4c0.1,0,0.2-0.1,0.2-0.2
	c0-0.1-0.1-0.2-0.2-0.2c-0.4,0-0.7,0.1-1,0.3c-0.3,0-0.5-0.1-0.7-0.3c-0.4-0.4-0.6-1-0.6-1.2C104.2-82.4,104.1-82.5,104-82.5z"/>
<path class="st24" d="M104.9-79.5l-0.2,0.2c-0.1,0.1-0.1,0.2,0,0.3c0,0,0.1,0.1,0.1,0.1c0.1,0,0.1,0,0.1-0.1l0.2-0.2
	c0.1-0.1,0.1-0.2,0-0.3C105.2-79.5,105-79.5,104.9-79.5z"/>
<path class="st24" d="M105.1-76.2c0.1,0,0.2-0.1,0.2-0.2c0-0.1-0.1-0.2-0.2-0.2c-0.3,0.1-0.5,0.1-0.7,0c-0.1-0.4-0.3-0.7-0.8-1
	c-0.1,0-0.2,0-0.3,0.1c0,0.1,0,0.2,0.1,0.3c0.4,0.2,0.5,0.5,0.6,0.9c0.1,0.4,0.3,0.8,0.8,1.3c0,0,0.1,0.1,0.1,0.1
	c0.1,0,0.1,0,0.2-0.1c0.1-0.1,0.1-0.2,0-0.3c-0.3-0.3-0.4-0.5-0.5-0.8c0,0,0,0,0.1,0C104.7-76.1,104.9-76.1,105.1-76.2z"/>
<path class="st24" d="M107.5-76.9l-0.2,0.2c-0.1,0.1-0.1,0.2,0,0.3c0,0,0.1,0.1,0.1,0.1s0.1,0,0.1-0.1l0.2-0.2
	c0.1-0.1,0.1-0.2,0-0.3C107.7-77,107.6-77,107.5-76.9z"/>
<path class="st24" d="M97.6-80.1c0.2-0.1,0.4-0.2,0.8-0.2c-0.3,0.5-0.5,1-0.7,1.5c0,0.1,0,0.2,0.1,0.3c0,0,0,0,0.1,0
	c0.1,0,0.2-0.1,0.2-0.1c0.2-0.6,0.5-1.1,0.8-1.6c0.5,0,1,0.1,1.3,0.3c0,0,0.1,0,0.1,0c0.1,0,0.1,0,0.2-0.1c0.1-0.1,0-0.2-0.1-0.3
	c-0.3-0.2-0.7-0.3-1.2-0.3c0.1-0.1,0.2-0.2,0.3-0.4c0.2-0.2,0.3-0.3,0.5-0.5c0,0,0.1,0.1,0.1,0.1c0.2,0.2,0.4,0.3,0.6,0.3
	c0,0,0,0,0,0c0.1,0,0.2-0.1,0.2-0.2c0-0.1-0.1-0.2-0.2-0.2c-0.1,0-0.3-0.1-0.5-0.3c0.4-0.3,0.8-0.7,1.2-0.9c0,0,0.1,0,0.1-0.1
	c0.2,0.1,0.5,0.3,0.6,0.5c0.1,0.1,0.1,0.2,0.1,0.3c0,0,0,0,0,0c0,0.1,0.1,0.3,0,0.4c0,0.1,0,0.2,0.1,0.3c0,0,0,0,0.1,0
	c0.1,0,0.2-0.1,0.2-0.2c0.1-0.2,0.1-0.4,0-0.6c0,0,0.1-0.1,0.1-0.2c0.3-0.3,0.7-0.8,0.8-1.2c0.1,0,0.2,0,0.3,0
	c0.8,0,1.5,0.2,2.2,0.5c-0.3,0.2-0.5,0.4-0.8,0.6l-0.1,0c-0.1,0.1-0.1,0.2,0,0.3c0,0,0.1,0.1,0.2,0.1c0.1,0,0.1,0,0.1-0.1l0.1,0
	c0.3-0.3,0.6-0.5,0.9-0.7c0.5,0.3,1,0.5,1.5,0.9c0.2,0.1,0.4,0.3,0.6,0.5c-0.2,0.1-0.3,0.3-0.5,0.5c-0.3-0.3-0.7-0.6-1.2-0.8
	c-0.1,0-0.2,0-0.3,0.1c0,0.1,0,0.2,0.1,0.3c0.5,0.1,0.9,0.5,1,0.7c-0.5,0.7-0.7,1.4-0.7,2c0,0.1,0.1,0.2,0.2,0.2c0,0,0,0,0,0
	c0.1,0,0.2-0.1,0.2-0.2c0-0.6,0.2-1.3,0.7-1.9c0.2-0.2,0.4-0.4,0.6-0.6c0.3,0.3,0.5,0.7,0.7,1.1c0,0.1,0.2,0.1,0.3,0.1
	c0.1,0,0.1-0.2,0.1-0.3c-0.2-0.4-0.4-0.8-0.7-1.1c0.2-0.1,0.4-0.2,0.6-0.2c0.1,0,0.2-0.1,0.2-0.2c0-0.1-0.1-0.2-0.2-0.2
	c-0.3,0-0.6,0.2-0.9,0.3c-0.2-0.2-0.5-0.4-0.7-0.6c-0.3-0.2-0.7-0.4-1-0.6c0.1,0,0.1,0,0.2,0c0.1,0,0.2,0,0.3-0.1
	c0-0.1,0-0.2-0.1-0.3c-0.4-0.1-0.7-0.1-1,0c-0.8-0.4-1.7-0.7-2.7-0.7c-0.1,0-0.2,0-0.3,0c0,0,0-0.1,0-0.1c0-0.1-0.2-0.1-0.3-0.1
	c-0.1,0-0.1,0.2-0.1,0.3c-0.6,0.1-1.2,0.3-1.7,0.5c-0.3-0.2-0.7-0.2-0.8-0.2c-0.1,0-0.2,0.1-0.2,0.2c0,0.1,0.1,0.2,0.2,0.2
	c0.1,0,0.2,0,0.3,0.1c-0.4,0.3-0.8,0.5-1.1,0.9c0,0,0,0,0-0.1c0-0.1-0.1-0.2-0.2-0.2c-0.1,0-0.2,0.1-0.2,0.2c0,0.1,0,0.2,0.1,0.3
	c-0.2,0.2-0.4,0.4-0.6,0.5c-0.2,0.2-0.4,0.4-0.6,0.6c-0.5,0-1,0.1-1.3,0.3c-0.1,0.1-0.1,0.2-0.1,0.3S97.5-80,97.6-80.1z M103.4-83.4
	c-0.2,0.3-0.5,0.7-0.6,0.9c0,0,0,0,0,0c0,0,0,0,0-0.1c-0.1-0.2-0.3-0.3-0.5-0.5C102.5-83.3,102.9-83.4,103.4-83.4z"/>
<path class="st24" d="M108.6-76.7C108.6-76.7,108.6-76.7,108.6-76.7c0.1,0,0.2-0.1,0.2-0.2c0-0.2,0-0.4-0.2-0.6
	c-0.1-0.1-0.3-0.3-0.5-0.3c0,0,0,0,0,0c-0.1,0-0.2,0.1-0.2,0.2c0,0.1,0.1,0.2,0.2,0.2c0.1,0,0.3,0.2,0.3,0.4
	C108.4-76.8,108.5-76.7,108.6-76.7z"/>
<path class="st24" d="M100.7-77.4c-0.3,0.1-0.8,0.6-0.9,0.8c0,0.1,0,0.2,0.1,0.3c0,0,0.1,0,0.1,0c0.1,0,0.2,0,0.2-0.1
	c0.1-0.1,0.5-0.5,0.6-0.5c0.1,0,0.2-0.1,0.1-0.3C101-77.4,100.8-77.4,100.7-77.4z"/>
<path class="st24" d="M101.8-74c0.3,0.4,0.6,0.8,1.2,1c0,0,0.1,0,0.1,0c0.1,0,0.2,0,0.2-0.1c0-0.1,0-0.2-0.1-0.3
	c-0.3-0.2-0.6-0.4-0.8-0.6c0,0,0.1,0,0.1,0c0.4-0.1,1-0.3,1.2,0c0,0.1,0.1,0.1,0.2,0.1c0,0,0.1,0,0.1,0c0.1-0.1,0.1-0.2,0-0.3
	c-0.4-0.5-1.1-0.3-1.7-0.2c-0.1,0-0.2,0.1-0.3,0.1c-0.4-0.5-0.8-1-1.9-1c-0.1,0-0.2,0.1-0.2,0.2c0,0.1,0.1,0.2,0.2,0.2
	C101.1-74.8,101.4-74.4,101.8-74z"/>
<path class="st24" d="M111.4-76.2c-0.1-0.1-0.2-0.1-0.3-0.1c0,0-0.1,0.1-0.2,0.1c0-0.3,0.1-0.6,0.1-1c0-0.3,0-0.6,0-0.9
	c0.2-0.3,0.3-0.6,0.2-1c0-0.1-0.1-0.2-0.2-0.2c-0.1,0-0.1,0.1-0.2,0.1c0-0.1-0.1-0.2-0.1-0.3c0-0.1-0.1-0.2-0.3-0.1
	c-0.1,0-0.2,0.1-0.1,0.3c0.1,0.4,0.2,0.8,0.2,1.2c-0.1,0.2-0.2,0.3-0.3,0.5c0,0,0,0,0,0c0,0-0.1-0.1-0.1-0.1
	c-0.3-0.4-0.9-1.1-0.7-1.6c0-0.1,0-0.2-0.1-0.3c-0.1,0-0.2,0-0.3,0.1c-0.3,0.7,0.4,1.5,0.7,2c0.1,0.1,0.1,0.2,0.2,0.2
	c-0.2,0.3-0.3,0.5-0.4,0.8c0,0.1,0,0.2,0.2,0.2c0,0,0,0,0,0c0.1,0,0.2-0.1,0.2-0.2c0.1-0.4,0.3-0.7,0.6-1.1c0,0,0,0,0.1-0.1
	c0,0.1,0,0.2,0,0.3c0,0.4,0,0.9-0.1,1.3c-0.4,0.2-0.8,0.5-0.9,0.7c-0.1,0.1,0,0.2,0.1,0.3c0,0,0.1,0,0.1,0c0.1,0,0.1,0,0.2-0.1
	c0,0,0.2-0.2,0.4-0.3c-0.1,0.4-0.2,0.7-0.4,1.1c-0.1,0.2-0.2,0.3-0.3,0.5c-0.3,0.1-0.7,0.1-1,0c-0.5-0.1-0.9-0.5-1.2-0.9
	c0.4-0.1,0.9-0.2,1.3-0.2c0.1,0,0.2-0.1,0.2-0.2c0-0.1-0.1-0.2-0.2-0.2c-1.3,0.1-2.7,0.4-3.3,1.3c-0.1,0.1,0,0.2,0.1,0.3
	c0,0,0.1,0,0.1,0c0.1,0,0.1,0,0.2-0.1c0.3-0.4,0.7-0.6,1.2-0.8c0.4,0.5,0.9,1,1.5,1.2c0.2,0.1,0.4,0.1,0.6,0.1c0,0,0.1,0,0.1,0
	c-0.4,0.4-0.9,0.8-1.4,1.1c-0.1,0.1-0.3,0.1-0.4,0.2c-0.3-0.1-0.7-0.3-1-0.5c0.2-0.1,0.3-0.1,0.5-0.2c0.1,0,0.2-0.2,0.1-0.3
	c0-0.1-0.2-0.2-0.3-0.1c-0.6,0.3-1.1,0.3-1.5,0.4c-0.4,0.1-0.7,0.1-1,0.3c-0.1,0.1-0.1,0.2-0.1,0.3c0,0.1,0.1,0.1,0.2,0.1
	c0,0,0.1,0,0.1,0c0.2-0.1,0.4-0.1,0.8-0.2c0.2,0,0.4-0.1,0.6-0.1c0.1,0.1,0.4,0.3,0.7,0.4c0.1,0.1,0.2,0.1,0.4,0.2
	c-0.9,0.5-1.8,0.9-2.8,0.9c-0.8,0-1.6-0.1-2.3-0.4c0-0.2,0-0.4,0-0.5c0.1,0,0.2,0,0.3-0.1c0.3-0.1,0.7-0.2,1-0.1
	c0.1,0,0.2,0,0.3-0.1c0-0.1,0-0.2-0.1-0.3c-0.4-0.1-0.9,0-1.2,0c-0.1,0-0.2,0-0.3,0.1c0-0.2-0.1-0.4-0.2-0.5c-0.3-0.6-0.7-1-0.8-1.1
	c-0.1-0.1-0.2-0.1-0.3,0c-0.1,0.1-0.1,0.2,0,0.3c0.1,0,0.4,0.4,0.7,1c0.1,0.2,0.1,0.4,0.2,0.6c0,0,0,0,0,0c0,0.2,0,0.4,0,0.5
	c-0.3-0.1-0.5-0.3-0.8-0.4c-0.1-0.1-0.2,0-0.3,0.1c-0.1,0.1,0,0.2,0.1,0.3c0.3,0.2,0.6,0.4,0.9,0.5c0,0.1-0.1,0.2-0.2,0.4
	c-0.1,0.1,0,0.2,0.1,0.3c0,0,0.1,0,0.1,0c0.1,0,0.1,0,0.2-0.1c0.1-0.1,0.1-0.3,0.2-0.4c0.7,0.3,1.5,0.4,2.4,0.4
	c1.2,0,2.3-0.6,3.3-1.2c0,0,0,0,0.1,0c0.1,0,0.2,0,0.3,0c0.1,0,0.2,0,0.3,0c0.1,0,0.2-0.1,0.1-0.3c0,0,0-0.1-0.1-0.1
	c0.7-0.4,1.3-0.9,1.7-1.5c0.3-0.1,0.6-0.3,1-0.5c0.1-0.1,0.1-0.2,0-0.3c-0.1-0.1-0.2-0.1-0.3,0c-0.1,0.1-0.2,0.1-0.3,0.2
	c0.3-0.5,0.4-1,0.6-1.6c0.2-0.1,0.3-0.2,0.5-0.3C111.4-75.9,111.4-76.1,111.4-76.2z"/>
<path class="st24" d="M99.4-73.2c0.1-0.3,0.2-0.5,0.4-0.7c0.1-0.1,0.1-0.2,0-0.3c-0.1-0.1-0.2-0.1-0.3,0c-0.1,0.1-0.2,0.3-0.3,0.5
	c-0.1-0.2-0.2-0.5-0.4-0.7c-0.3-0.6-0.7-1.2-0.9-1.9c0.1-0.2,0.1-0.4,0.2-0.6c0,0,0,0,0,0c0.3,0.3,0.9,0.9,0.9,1.4
	c0,0.1,0.1,0.2,0.2,0.2c0.1,0,0.2-0.1,0.2-0.2c0-0.6-0.7-1.3-1-1.7c0,0-0.1-0.1-0.1-0.1c0.3-0.4,0.7-0.6,1.1-0.9
	c0.1,0,0.2-0.1,0.2-0.1c0.1-0.1,0.1-0.2,0.1-0.3c-0.1-0.1-0.2-0.1-0.3-0.1c-0.1,0-0.2,0.1-0.2,0.1c-0.5,0.3-1,0.6-1.3,1.1
	c0,0,0,0,0,0c0,0,0,0,0,0c-0.1,0.1-0.1,0.2-0.2,0.2c0,0,0,0,0,0c0-0.2,0-0.5,0.1-0.7c0-0.1-0.1-0.2-0.2-0.2c-0.1,0-0.2,0.1-0.2,0.2
	c0,0.3-0.1,0.5-0.1,0.8c0,0.3,0,0.6,0.1,0.8c-0.1,0.4-0.2,0.8-0.2,1.3c0,0.1,0.1,0.2,0.2,0.2c0,0,0,0,0,0c0.1,0,0.2-0.1,0.2-0.2
	c0-0.2,0-0.3,0-0.5c0.2,0.4,0.4,0.9,0.7,1.3c0.2,0.3,0.3,0.6,0.4,0.8c0,0.1,0.1,0.1,0.1,0.2c-0.2,0.5-0.2,1.1-0.1,1.3
	c0,0.1,0.1,0.1,0.2,0.1c0,0,0.1,0,0.1,0c0.1-0.1,0.1-0.2,0.1-0.3c0-0.1,0-0.3,0-0.6c0.2,0.2,0.3,0.4,0.5,0.6c0,0,0.1,0.1,0.1,0.1
	c0.1,0,0.1,0,0.1-0.1c0.1-0.1,0.1-0.2,0-0.3C99.8-72.5,99.5-72.8,99.4-73.2z"/>
<path class="st24" d="M105.5-77.1c0.1,0.1,0.3,0.2,0.5,0.2c0.2,0,0.4-0.1,0.5-0.2l0.3-0.3c0.1-0.1,0.1-0.2,0.1-0.2s0-0.2-0.1-0.2
	l-0.5-0.5c-0.1-0.1-0.2-0.1-0.2-0.1c-0.1,0-0.2,0-0.2,0.1l-0.3,0.3C105.2-77.9,105.2-77.4,105.5-77.1L105.5-77.1z M105.8-77.9
	l0.2-0.2l0.4,0.4l-0.2,0.2c-0.1,0.1-0.3,0.1-0.4,0C105.6-77.5,105.6-77.7,105.8-77.9z"/>
<path class="st24" d="M98.7-79.2c-0.1,0.1-0.1,0.2,0,0.3c0,0,0.1,0.1,0.1,0.1c0.1,0,0.1,0,0.1-0.1c0.1-0.1,0.4-0.2,0.5-0.1
	c0.1,0,0.2-0.1,0.2-0.2c0-0.1-0.1-0.2-0.2-0.2C99.3-79.5,98.9-79.5,98.7-79.2z"/>
<path class="st24" d="M102.5-75.3c0,0,0.1,0.1,0.1,0.1c0.1,0,0.1,0,0.1-0.1c0.1-0.1,0.1-0.2,0-0.3c-0.2-0.2-0.7-1.3-0.4-1.9
	c0.2-0.4,0.2-1.1,0.2-1.8c0-0.4-0.1-1.3-0.5-1.7c-0.1-0.1-0.2-0.1-0.3,0c-0.1,0.1-0.1,0.2,0,0.3c0.2,0.2,0.3,0.8,0.4,1.4
	c0,0.3,0,0.7,0,1c-0.4-0.7-1-0.9-1.3-1.1c-0.1,0-0.2-0.1-0.2-0.1c-0.1-0.1-0.2,0-0.3,0.1c-0.1,0.1,0,0.2,0.1,0.3
	c0.1,0,0.1,0.1,0.2,0.1c0.4,0.2,1.1,0.5,1.3,1.4C101.7-76.7,102.2-75.6,102.5-75.3z"/>
<path class="st25" d="M72.4-79.4L72.4-79.4L72.4-79.4c1.5-1.1,3.2-1.2,4.9-0.8c1.7,0.3,3.4,1.2,5,1.9h0c1.8,0.9,3.7,1.5,5.7,1.9l0,0
	c1.3,0.3,2.3,0.1,3.1-0.4c0.8-0.4,1.5-1.1,2.2-1.9c0,0,0.1-0.1,0.1-0.1c0.2-0.2,0.4-0.2,0.5-0.2c0.1,0,0.2,0.2,0.1,0.4
	c-1,1.6-2.3,2.5-3.8,2.9c-1.5,0.3-3.2,0.1-5.1-0.7c-0.9-0.4-1.7-0.8-2.6-1.2c-0.1-0.1-0.2-0.1-0.4-0.2c-1-0.5-2-1-3-1.4
	c-2.1-0.8-4.2-1-6.4,0.2l0,0l0,0c-0.1,0.1-0.3,0-0.3,0c0,0,0-0.1,0-0.1C72.4-79.3,72.4-79.4,72.4-79.4z"/>
<path class="st25" d="M96.6-83L96.6-83c0.2,0.2,0.1,0.6,0,0.7c-0.1,0.1-0.2,0.1-0.3,0.1c-0.1,0-0.2,0-0.4-0.2
	c-2.3-2.9-5.3-3.6-8.5-3.4c-2.8,0.2-5.8,1.1-8.8,2c-0.4,0.1-0.8,0.2-1.2,0.4c-3.3,1-6.6,1.8-9.3,1.4c-1.4-0.2-2.6-0.7-3.7-1.7
	c-1.1-1-2-2.4-2.8-4.4l0,0l0,0c0-0.1,0-0.1,0-0.1c0,0,0.1-0.1,0.2-0.1c0.1,0,0.1,0,0.2,0c0.1,0,0.1,0,0.1,0.1l0,0l0,0
	c0.8,1.7,1.8,3.1,3.1,4.1c1.3,1,3,1.5,4.9,1.4c2.9-0.2,5.5-1.1,8.2-2c0.5-0.2,1.1-0.4,1.6-0.5c3-1,6.1-1.7,8.9-1.6
	C91.7-86.7,94.4-85.6,96.6-83z"/>
<path class="st24" d="M111.9-73c-0.5,1.2-2,2.9-4.2,3.8c-0.9,0.4-0.8,1-0.3,0.9c1.6-0.2,3.8-1.8,4.8-3.7C113.3-74,112.7-75,111.9-73
	z"/>
<path class="st24" d="M102.7-68.3c-1.1,0-2.8-0.4-4-1.6c-0.5-0.5-1-0.2-0.8,0.1c0.5,1,2.4,1.9,4.1,2
	C103.8-67.7,104.4-68.4,102.7-68.3z"/>
</svg>
