<?xml version="1.0" encoding="utf-8"?>
<!-- Generator: Adobe Illustrator 19.0.0, SVG Export Plug-In . SVG Version: 6.00 Build 0)  -->
<svg version="1.1" id="Camada_1" xmlns="http://www.w3.org/2000/svg" xmlns:xlink="http://www.w3.org/1999/xlink" x="0px" y="0px"
	 viewBox="-61 385 24 24" style="enable-background:new -61 385 24 24;" xml:space="preserve">
<style type="text/css">
	.st0{opacity:0;}
</style>
<rect x="-61" y="385" class="st0" width="24" height="24"/>
<path d="M-60.8,387.6c0.3-0.7,1-1.1,1.7-1.1h20.3c0.7,0,1.4,0.4,1.7,1.1c0.3,0.7,0.2,1.4-0.3,2L-46,400v6c0,0.6-0.3,1.1-0.8,1.3
	c-0.5,0.3-1.1,0.2-1.6-0.1l-3-2.3c-0.4-0.3-0.6-0.7-0.6-1.2V400l-8.6-10.5C-61,389-61.1,388.2-60.8,387.6L-60.8,387.6z"/>
</svg>
