<svg id="Camada_1" data-name="Camada 1" xmlns="http://www.w3.org/2000/svg" viewBox="0 0 32 32">
	<defs>
		<style>
			.cls-1{opacity:0;}
		</style>
	</defs>
	<path d="M16,30.17a1,1,0,0,1-.58-.17c-.52-.35-12.84-8.62-15-15.14C-.86,11,.93,6.05,4.48,3.51,7.85,1.09,12,1.29,16,4c4-2.74,8.15-2.94,11.52-.52,3.55,2.54,5.34,7.53,4.07,11.35C29.42,21.38,17.1,29.65,16.58,30A1,1,0,0,1,16,30.17ZM9.61,3.91A6.61,6.61,0,0,0,5.7,5.2c-2.81,2-4.3,6.05-3.31,9,1.7,5.11,11.16,12,13.61,13.67,2.45-1.71,11.91-8.56,13.61-13.67,1-2.95-.5-7-3.31-9s-6.23-1.67-9.67,1a1,1,0,0,1-1.26,0A9.66,9.66,0,0,0,9.61,3.91Z" />
	<rect class="cls-1" width="32" height="32" />
</svg>
