<?xml version="1.0" encoding="utf-8"?>
<!-- Generator: Adobe Illustrator 19.0.0, SVG Export Plug-In . SVG Version: 6.00 Build 0)  -->
<svg version="1.1" id="Camada_1" xmlns="http://www.w3.org/2000/svg" xmlns:xlink="http://www.w3.org/1999/xlink" x="0px" y="0px"
	 viewBox="622 6 12 12" style="enable-background:new 622 6 12 12;" xml:space="preserve">
<path d="M628.9,7.2c0.5,0,0.9,0.4,0.9,0.9V9h1c0.3,0,0.6,0.1,0.8,0.4l1.4,1.4c0.2,0.2,0.4,0.5,0.4,0.8v2.2c0.3,0,0.6,0.3,0.6,0.6
	c0,0.3-0.3,0.6-0.6,0.6h-0.6c0,1-0.8,1.8-1.8,1.8c-1,0-1.8-0.8-1.8-1.8h-2.4c0,1-0.8,1.8-1.8,1.8c-1,0-1.8-0.8-1.8-1.8h-0.3
	c-0.5,0-0.9-0.4-0.9-0.9v-6c0-0.5,0.4-0.9,0.9-0.9H628.9z M629.8,10.2V12h2.4v-0.4l-1.4-1.4H629.8z M625,14.1
	c-0.5,0-0.9,0.4-0.9,0.9s0.4,0.9,0.9,0.9s0.9-0.4,0.9-0.9S625.5,14.1,625,14.1z M631,15.9c0.5,0,0.9-0.4,0.9-0.9s-0.4-0.9-0.9-0.9
	s-0.9,0.4-0.9,0.9S630.5,15.9,631,15.9z"/>
</svg>
