<?xml version="1.0" encoding="utf-8"?>
<!-- Generator: Adobe Illustrator 19.0.0, SVG Export Plug-In . SVG Version: 6.00 Build 0)  -->
<svg version="1.1" id="Camada_1" xmlns="http://www.w3.org/2000/svg" xmlns:xlink="http://www.w3.org/1999/xlink" x="0px" y="0px"
	 viewBox="-61 385 24 24" style="enable-background:new -61 385 24 24;" xml:space="preserve">
<style type="text/css">
	.st0{opacity:0;}
</style>
<rect x="-61" y="385" class="st0" width="24" height="24"/>
<g id="XMLID_2_">
	<circle id="XMLID_1_" cx="-49" cy="397" r="6.6"/>
	<polygon id="XMLID_4_" points="-49,385 -50.2,387.9 -47.8,387.9 	"/>
	<polygon id="XMLID_3_" points="-49,409 -47.8,406.1 -50.2,406.1 	"/>
	<polygon id="XMLID_7_" points="-37,397 -39.9,395.8 -39.9,398.2 	"/>
	<polygon id="XMLID_6_" points="-61,397 -58.1,398.2 -58.1,395.8 	"/>
	<polygon id="XMLID_13_" points="-55,386.6 -54.6,389.7 -52.5,388.5 	"/>
	<polygon id="XMLID_12_" points="-43,407.4 -43.4,404.3 -45.5,405.5 	"/>
	<polygon id="XMLID_10_" points="-38.6,391 -41.7,391.4 -40.5,393.5 	"/>
	<polygon id="XMLID_9_" points="-59.4,403 -56.3,402.6 -57.5,400.5 	"/>
	<polygon id="XMLID_21_" points="-59.4,391 -57.5,393.5 -56.3,391.4 	"/>
	<polygon id="XMLID_20_" points="-38.6,403 -40.5,400.5 -41.7,402.6 	"/>
	<polygon id="XMLID_18_" points="-43,386.6 -45.5,388.5 -43.4,389.7 	"/>
	<polygon id="XMLID_17_" points="-55,407.4 -52.5,405.5 -54.6,404.3 	"/>
</g>
</svg>
