<?xml version="1.0" encoding="utf-8"?>
<!-- Generator: Adobe Illustrator 19.0.0, SVG Export Plug-In . SVG Version: 6.00 Build 0)  -->
<svg version="1.1" id="Camada_1" xmlns="http://www.w3.org/2000/svg" xmlns:xlink="http://www.w3.org/1999/xlink" x="0px" y="0px"
	 viewBox="0 0 64.7 64.7" style="enable-background:new 0 0 64.7 64.7;" xml:space="preserve">
<style type="text/css">
	.st0{fill:#B41A1A;}
</style>
<path class="st0" d="M10.4,64.7c-0.1,0-0.2,0-0.3-0.1c-0.1-0.1-0.2-0.4,0-0.5L32,38.1c0.1-0.1,0.2-0.1,0.3-0.1h0
	c0.1,0,0.2,0,0.3,0.1l8.8,10.1h13.3c0.1,0,0.2,0.1,0.3,0.1l2.4,3c0.1,0.1,0.1,0.3,0,0.4c-0.1,0.1-0.2,0.2-0.3,0.2H39.7
	c-0.1,0-0.2,0-0.3-0.1l-7.6-9L10.7,64.5C10.6,64.6,10.5,64.7,10.4,64.7 M48.3,45.5c-0.1,0-0.2,0-0.3-0.1L37.1,32.6
	c-0.1-0.1-0.1-0.3,0-0.5l15.8-19.5c0.1-0.1,0.2-0.1,0.3-0.1h4c0.1,0,0.3,0.1,0.3,0.2c0.1,0.1,0,0.3,0,0.4L42,32.2l10.3,12.7
	c0.1,0.1,0.1,0.3,0,0.4c-0.1,0.1-0.2,0.2-0.3,0.2H48.3z"/>
<path d="M7.5,51.9c-0.1,0-0.3-0.1-0.3-0.2c-0.1-0.1,0-0.3,0-0.4l15.5-19L12.1,19.6c-0.1-0.1-0.1-0.3-0.1-0.4
	c0.1-0.1,0.2-0.2,0.3-0.2h4c0.1,0,0.2,0.1,0.3,0.1l10.8,13c0.1,0.1,0.1,0.3,0,0.5l-16,19.2c-0.1,0.1-0.2,0.1-0.3,0.1H7.5z
	 M32.2,26.6c-0.1,0-0.2,0-0.3-0.1l-8.8-10.1H9.8c-0.1,0-0.2-0.1-0.3-0.1l-2.4-3C7,13.2,7,13,7.1,12.9c0.1-0.1,0.2-0.2,0.3-0.2h17.4
	c0.1,0,0.2,0,0.3,0.1l7.6,9L53.9,0.1C53.9,0,54,0,54.1,0c0.1,0,0.2,0,0.3,0.1c0.2,0.1,0.2,0.4,0,0.5L32.5,26.5
	C32.4,26.6,32.3,26.6,32.2,26.6L32.2,26.6z"/>
</svg>
