<?xml version="1.0" encoding="utf-8"?>
<!-- Generator: Adobe Illustrator 19.0.0, SVG Export Plug-In . SVG Version: 6.00 Build 0)  -->
<svg version="1.1" id="Camada_1" xmlns="http://www.w3.org/2000/svg" xmlns:xlink="http://www.w3.org/1999/xlink" x="0px" y="0px"
	 viewBox="494 6 12 12" style="enable-background:new 494 6 12 12;" xml:space="preserve">
<path d="M501.8,11.3c0.7,0,1.3,0.3,1.8,0.7l0.5,0.5c0.9-0.4,1.7-1.2,1.9-2.3c0.1-0.6,0.1-1.1,0-1.6c-0.1-0.3-0.4-0.3-0.6-0.2
	l-1.6,1.6H502V8.3l1.6-1.6c0.2-0.2,0.1-0.5-0.2-0.6c-0.5-0.1-1-0.1-1.6,0c-1.3,0.3-2.3,1.4-2.5,2.7c0,0.2,0,0.4,0,0.6l1.9,1.9
	C501.4,11.3,501.6,11.3,501.8,11.3z M503,12.5c-0.5-0.5-1.3-0.6-2-0.3l-2.5-2.5V8.3l-3-2.2L494,7.5l2.2,3l1.5,0l2.5,2.5
	c-0.3,0.7-0.2,1.5,0.3,2l2.7,2.7c0.3,0.3,0.9,0.3,1.2,0l1.2-1.2c0.3-0.3,0.3-0.9,0-1.2L503,12.5z M499.3,13.2l-1.4-1.4l-3.5,3.5
	c-0.6,0.6-0.6,1.6,0,2.2c0.3,0.3,0.7,0.5,1.1,0.5s0.8-0.2,1.1-0.5l2.8-2.8C499.3,14.3,499.2,13.7,499.3,13.2z M495.5,17.1
	c-0.3,0-0.6-0.3-0.6-0.6c0-0.3,0.3-0.6,0.6-0.6s0.6,0.3,0.6,0.6C496.1,16.8,495.8,17.1,495.5,17.1z"/>
</svg>
