<?xml version="1.0" encoding="utf-8"?>
<!-- Generator: Adobe Illustrator 19.0.0, SVG Export Plug-In . SVG Version: 6.00 Build 0)  -->
<svg version="1.1" id="Camada_1" xmlns="http://www.w3.org/2000/svg" xmlns:xlink="http://www.w3.org/1999/xlink" x="0px" y="0px"
	 viewBox="0 0 32 32" style="enable-background:new 0 0 32 32;" xml:space="preserve">
<g id="XMLID_2_">
	<path id="XMLID_3_" d="M3.6,10.5L9,18.7v-8.3c0-0.5,0.1-0.9,0.3-1.2C9.6,9,9.9,8.8,10.3,8.8c0.4,0,0.7,0.1,1,0.4
		c0.2,0.3,0.4,0.7,0.4,1.2v10.9c0,1.2-0.5,1.8-1.5,1.8c-0.3,0-0.5,0-0.7-0.1S9,22.9,8.8,22.7s-0.3-0.3-0.5-0.6
		c-0.2-0.2-0.3-0.4-0.5-0.6l-5.3-8.1v8.1c0,0.5-0.1,0.9-0.4,1.2s-0.6,0.4-0.9,0.4c-0.4,0-0.7-0.1-1-0.4C0.1,22.5,0,22.1,0,21.6V10.9
		c0-0.5,0.1-0.8,0.2-1.1c0.1-0.3,0.3-0.5,0.6-0.7s0.6-0.3,0.9-0.3c0.3,0,0.5,0,0.6,0.1s0.3,0.2,0.5,0.3S3,9.6,3.2,9.8
		C3.3,10,3.5,10.3,3.6,10.5z"/>
	<path id="XMLID_5_" d="M18.2,10.7l-2.6,10.9c-0.1,0.4-0.2,0.6-0.2,0.9c-0.1,0.2-0.2,0.4-0.3,0.5c-0.1,0.1-0.3,0.2-0.6,0.2
		c-0.6,0-1-0.3-1-0.8c0-0.1,0.1-0.5,0.2-1.1l2.6-10.9c0.1-0.6,0.3-1,0.4-1.2c0.1-0.2,0.4-0.3,0.7-0.3c0.3,0,0.6,0.1,0.7,0.2
		c0.2,0.2,0.3,0.4,0.3,0.6C18.4,9.9,18.3,10.2,18.2,10.7z"/>
	<path id="XMLID_7_" d="M29,21.4l-0.7-1.7h-5.6L22,21.4c-0.3,0.7-0.5,1.2-0.7,1.4c-0.2,0.2-0.5,0.4-0.9,0.4c-0.4,0-0.7-0.1-0.9-0.4
		c-0.3-0.3-0.4-0.6-0.4-0.9c0-0.2,0-0.4,0.1-0.6c0.1-0.2,0.2-0.5,0.3-0.8l3.5-9c0.1-0.3,0.2-0.6,0.4-0.9c0.1-0.4,0.3-0.7,0.5-0.9
		c0.2-0.2,0.4-0.4,0.6-0.6c0.3-0.1,0.6-0.2,1-0.2c0.4,0,0.7,0.1,1,0.2c0.3,0.1,0.5,0.3,0.6,0.6c0.2,0.2,0.3,0.5,0.4,0.8
		c0.1,0.3,0.3,0.6,0.4,1.1l3.6,9c0.3,0.7,0.4,1.2,0.4,1.5c0,0.3-0.1,0.6-0.4,0.9c-0.3,0.3-0.6,0.4-1,0.4c-0.2,0-0.4,0-0.6-0.1
		c-0.2-0.1-0.3-0.2-0.4-0.3c-0.1-0.1-0.2-0.3-0.3-0.6C29.2,21.8,29.1,21.6,29,21.4z M23.4,17.5h4.1l-2.1-5.7L23.4,17.5z"/>
</g>
</svg>
