<?xml version="1.0" encoding="utf-8"?>
<!-- Generator: Adobe Illustrator 19.0.0, SVG Export Plug-In . SVG Version: 6.00 Build 0)  -->
<svg version="1.1" id="Camada_1" xmlns="http://www.w3.org/2000/svg" xmlns:xlink="http://www.w3.org/1999/xlink" x="0px" y="0px"
	 viewBox="-139 -237 332 237" style="enable-background:new -139 -237 332 237;" xml:space="preserve">
<style type="text/css">
	.st0{fill:#DFD3D4;}
	.st1{fill:#F1F1FA;filter:url(#Adobe_OpacityMaskFilter);}
	.st2{mask:url(#mask0_2_169);}
	.st3{fill:#D9A2A5;}
	.st4{fill:#D9A2A5;stroke:#DFD3D4;stroke-width:4.3493;}
	.st5{fill:#D32F39;stroke:#000000;stroke-width:3.2;}
	.st6{fill:#DFD3D4;stroke:#000000;stroke-width:2.8;}
	.st7{fill:#D32F39;}
	.st8{fill:none;stroke:#D32F39;stroke-width:2;}
	.st9{fill:none;stroke:#000000;stroke-width:2;}
</style>
<g>
	<g>
		<path class="st0" d="M-39.6-217.7c-57.8,33.4-154.3,159.2-59.4,212c44.9,25,75.3-45.7,138.3-47.5c63-1.8,95.5,22.3,132.3,5.5
			c24.3-11.1,32.2-56.3,0-104.8C124.7-223,39.1-263.1-39.6-217.7z"/>
	</g>
	<defs>
		<filter id="Adobe_OpacityMaskFilter" filterUnits="userSpaceOnUse" x="-267" y="-207" width="595.4" height="391.4">
			<feColorMatrix  type="matrix" values="1 0 0 0 0  0 1 0 0 0  0 0 1 0 0  0 0 0 1 0"/>
		</filter>
	</defs>
	<mask maskUnits="userSpaceOnUse" x="-267" y="-207" width="595.4" height="391.4" id="mask0_2_169">
		<path class="st1" d="M-39.6-217.7c-57.8,33.4-154.3,159.2-59.4,212c44.9,25,75.3-45.7,138.3-47.5c63-1.8,95.5,22.3,132.3,5.5
			c24.3-11.1,32.2-56.3,0-104.8C124.7-223,39.1-263.1-39.6-217.7z"/>
	</mask>
	<g class="st2">
		<path class="st3" d="M147.9-44.1l4,1.7l-237,65.8c-70-7.4-203.7-31-178.9-65.8c31-43.5,65.8-69.6,147.3-69.6
			C-18.5-112-5.4-106.7,147.9-44.1z"/>
		<path class="st4" d="M212-99c42.6,0,76.9,9.4,113,54.9L209.6,9C133.5,0.9,25.2,9.6,52.2-28.2C85.9-75.4,123.2-99,212-99z"/>
		<path class="st5" d="M-67.3,182.8L-67.3,182.8H43.5c3.4,0,6.8-0.6,9.9-1.9c3.1-1.3,6-3.2,8.4-5.6c2.4-2.4,4.3-5.2,5.6-8.4
			c1.3-3.1,2-6.5,2-9.9l0,0l1.2-279.2c0-6.9-2.7-13.4-7.5-18.3c-4.8-4.9-11.4-7.6-18.3-7.7l0,0l-111.4-0.5c0,0,0,0,0,0
			c-6.9,0-13.4,2.7-18.3,7.5c-4.9,4.8-7.6,11.4-7.7,18.2v0l-1.2,279.2v0C-93.7,170.6-81.6,182.7-67.3,182.8z"/>
		<path class="st6" d="M45.9,170.4c4.1,0,8.1-1.7,11-4.6c2.9-2.9,4.5-6.9,4.5-11v0L60.3-87.9v-29.9c0-2.1-0.4-4.1-1.2-6
			c-0.8-1.9-1.9-3.6-3.4-5.1c-1.4-1.5-3.2-2.6-5.1-3.4c-1.9-0.8-3.9-1.2-6-1.2l-21.5-0.1c-1,0-2,0.5-2.8,1.2
			c-0.7,0.8-1.1,1.8-1.1,2.8v0v3.9c0,1.8-0.7,3.5-1.9,4.8c-1.2,1.3-2.9,2-4.7,2h0h0l-42.1-0.2h0l0,0c-1.8,0-3.5-0.8-4.7-2.1
			c-1.2-1.3-1.9-3-1.9-4.8v-3.9v0v0c0-1.1-0.4-2.1-1.1-2.8c-0.7-0.8-1.7-1.2-2.7-1.2h-7.6h0l-18.9-0.1c0,0,0,0,0,0
			c-2.1,0-4.1,0.4-6,1.2c-1.9,0.8-3.6,1.9-5.1,3.4c-1.5,1.4-2.6,3.2-3.4,5.1c-0.8,1.9-1.2,3.9-1.2,6v0l-1.2,272.5v0
			c0,4.1,1.6,8.1,4.5,11c2.9,2.9,6.9,4.6,11,4.6L45.9,170.4L45.9,170.4 M43.5,170.3C43.5,170.3,43.5,170.3,43.5,170.3 M44.8-133.4
			L44.8-133.4L44.8-133.4z M45.9,170.4C45.9,170.4,45.9,170.4,45.9,170.4"/>
		<path class="st7" d="M6.8-73.2c-0.3-0.4-6.4-9.9-17.5-9.9s-17.2,9.5-17.5,9.9c-1,1.6-0.6,3.8,1.1,4.8c1.6,1,3.8,0.6,4.8-1.1
			c0-0.1,4.4-6.7,11.6-6.7c7.3,0,11.6,6.7,11.6,6.7c1,1.6,3.2,2.1,4.8,1.1C7.4-69.4,7.9-71.5,6.8-73.2z M-25.8-106
			c2.4,0,4.3,1.9,4.3,4.3c0,2.4-1.9,4.3-4.3,4.3c-2.4,0-4.3-1.9-4.3-4.3C-30.1-104-28.2-106-25.8-106z M0.3-101.7
			c0,2.4,1.9,4.3,4.3,4.3c2.4,0,4.3-1.9,4.3-4.3c0-2.4-1.9-4.3-4.3-4.3C2.2-106,0.3-104,0.3-101.7z"/>
		<path class="st8" d="M6.8-73.2c-0.3-0.4-6.4-9.9-17.5-9.9s-17.2,9.5-17.5,9.9c-1,1.6-0.6,3.8,1.1,4.8c1.6,1,3.8,0.6,4.8-1.1
			c0-0.1,4.4-6.7,11.6-6.7c7.3,0,11.6,6.7,11.6,6.7c1,1.6,3.2,2.1,4.8,1.1C7.4-69.4,7.9-71.5,6.8-73.2z M-25.8-106
			c2.4,0,4.3,1.9,4.3,4.3c0,2.4-1.9,4.3-4.3,4.3c-2.4,0-4.3-1.9-4.3-4.3C-30.1-104-28.2-106-25.8-106z M0.3-101.7
			c0,2.4,1.9,4.3,4.3,4.3c2.4,0,4.3-1.9,4.3-4.3c0-2.4-1.9-4.3-4.3-4.3C2.2-106,0.3-104,0.3-101.7z"/>
		<path class="st9" d="M6.8-73.2c-0.3-0.4-6.4-9.9-17.5-9.9s-17.2,9.5-17.5,9.9c-1,1.6-0.6,3.8,1.1,4.8c1.6,1,3.8,0.6,4.8-1.1
			c0-0.1,4.4-6.7,11.6-6.7c7.3,0,11.6,6.7,11.6,6.7c1,1.6,3.2,2.1,4.8,1.1C7.4-69.4,7.9-71.5,6.8-73.2z M-25.8-106
			c2.4,0,4.3,1.9,4.3,4.3c0,2.4-1.9,4.3-4.3,4.3c-2.4,0-4.3-1.9-4.3-4.3C-30.1-104-28.2-106-25.8-106z M0.3-101.7
			c0,2.4,1.9,4.3,4.3,4.3c2.4,0,4.3-1.9,4.3-4.3c0-2.4-1.9-4.3-4.3-4.3C2.2-106,0.3-104,0.3-101.7z"/>
		<path class="st3" d="M76-156.5c-2.4,2.4-2.4,6.3,0,8.7c2.4,2.4,6.3,2.4,8.7,0c2.4-2.4,2.4-6.3,0-8.7
			C82.3-158.9,78.4-158.9,76-156.5z"/>
		<path class="st3" d="M80.3-171.2c-5.1,0-9.9,2-13.5,5.6c-1.4,1.4-1.4,3.7,0,5.1c1.4,1.4,3.7,1.4,5.1,0c2.2-2.2,5.2-3.5,8.3-3.5
			c3.2,0,6.1,1.2,8.3,3.5c0.7,0.7,1.6,1.1,2.6,1.1c0.9,0,1.8-0.4,2.6-1.1c1.4-1.4,1.4-3.7,0-5.1C90.2-169.2,85.4-171.2,80.3-171.2z"
			/>
		<path class="st3" d="M80.3-183.1c-8.3,0-16,3.2-21.9,9.1c-1.4,1.4-1.4,3.7,0,5.1c1.4,1.4,3.7,1.4,5.1,0c4.5-4.5,10.4-6.9,16.8-6.9
			c6.3,0,12.3,2.5,16.8,6.9c0.7,0.7,1.6,1.1,2.6,1.1c0.9,0,1.8-0.4,2.6-1.1c1.4-1.4,1.4-3.7,0-5.1C96.4-179.9,88.6-183.1,80.3-183.1
			z"/>
		<path class="st3" d="M110.6-182.4c-8.1-8.1-18.8-12.5-30.3-12.5c-11.4,0-22.2,4.5-30.3,12.5c-1.4,1.4-1.4,3.7,0,5.1
			c0.7,0.7,1.6,1.1,2.6,1.1c0.9,0,1.8-0.4,2.6-1.1c6.7-6.7,15.7-10.4,25.2-10.4c9.5,0,18.4,3.7,25.2,10.4c1.4,1.4,3.7,1.4,5.1,0
			C112-178.7,112-181,110.6-182.4z"/>
		<path class="st7" d="M80.1-163.9c-0.9,0-1.6-0.3-2.2-0.9c-0.6-0.6-0.9-1.4-1-2.5l-3.2-33.1l-0.1-0.9c0-1.8,0.6-3.2,1.8-4.2
			c1.2-1.1,2.8-1.6,4.7-1.6c1.9,0,3.4,0.5,4.6,1.6c1.3,1,1.9,2.4,1.9,4.2l-0.1,0.9l-3.2,33.1c-0.1,1.1-0.5,1.9-1.1,2.5
			C81.7-164.2,81-163.9,80.1-163.9z M80.1-146c-1.8,0-3.3-0.6-4.5-1.8c-1.2-1.2-1.8-2.8-1.8-4.6c0-1.8,0.6-3.3,1.8-4.5
			c1.2-1.2,2.7-1.9,4.5-1.9c1.8,0,3.3,0.6,4.5,1.9c1.2,1.2,1.8,2.7,1.8,4.5c0,1.8-0.6,3.4-1.8,4.6C83.4-146.6,81.9-146,80.1-146z"/>
	</g>
</g>
</svg>
