<?xml version="1.0" encoding="utf-8"?>
<!-- Generator: Adobe Illustrator 19.0.0, SVG Export Plug-In . SVG Version: 6.00 Build 0)  -->
<svg version="1.1" id="Camada_1" xmlns="http://www.w3.org/2000/svg" xmlns:xlink="http://www.w3.org/1999/xlink" x="0px" y="0px"
	 viewBox="494 6 12 12" style="enable-background:new 494 6 12 12;" xml:space="preserve">
<path d="M497.6,7.1c0.2,0.2,0.2,0.6,0,0.8l-1.7,1.9c-0.1,0.1-0.2,0.2-0.4,0.2c-0.2,0-0.3,0-0.4-0.2l-0.9-0.9c-0.2-0.2-0.2-0.6,0-0.8
	c0.2-0.2,0.6-0.2,0.8,0l0.5,0.5l1.3-1.4C497,6.9,497.3,6.9,497.6,7.1L497.6,7.1z M497.6,10.8c0.2,0.2,0.2,0.6,0,0.8l-1.7,1.9
	c-0.1,0.1-0.2,0.2-0.4,0.2c-0.2,0-0.3,0-0.4-0.2l-0.9-0.9c-0.2-0.2-0.2-0.6,0-0.8c0.2-0.2,0.6-0.2,0.8,0l0.5,0.5l1.3-1.4
	C497,10.6,497.3,10.6,497.6,10.8L497.6,10.8z M499.3,8.4c0-0.4,0.3-0.7,0.8-0.7h5.2c0.4,0,0.8,0.3,0.8,0.7c0,0.4-0.3,0.7-0.8,0.7
	H500C499.6,9.2,499.3,8.9,499.3,8.4L499.3,8.4z M499.3,12.2c0-0.4,0.3-0.7,0.8-0.7h5.2c0.4,0,0.8,0.3,0.8,0.7s-0.3,0.7-0.8,0.7H500
	C499.6,12.9,499.3,12.6,499.3,12.2z M497.8,15.9c0-0.4,0.3-0.7,0.8-0.7h6.7c0.4,0,0.8,0.3,0.8,0.7c0,0.4-0.3,0.7-0.8,0.7h-6.7
	C498.1,16.7,497.8,16.4,497.8,15.9z M494,15.9c0-0.6,0.5-1.1,1.1-1.1c0.6,0,1.1,0.5,1.1,1.1c0,0.6-0.5,1.1-1.1,1.1
	C494.5,17.1,494,16.6,494,15.9z"/>
</svg>
