<?xml version="1.0" encoding="utf-8"?>
<!-- Generator: Adobe Illustrator 25.3.1, SVG Export Plug-In . SVG Version: 6.00 Build 0)  -->
<svg version="1.1" id="Camada_1" xmlns="http://www.w3.org/2000/svg" xmlns:xlink="http://www.w3.org/1999/xlink" x="0px" y="0px"
	 viewBox="0 0 32 32" style="enable-background:new 0 0 32 32;" xml:space="preserve">
<path d="M31.7,30L23,21.4c1.9-2.3,3-5.2,3-8.3c0-7.2-5.8-13-13-13S0,5.8,0,13s5.8,13,13,13c3.2,0,6.1-1.1,8.3-3l8.6,8.6
	c0.2,0.2,0.5,0.3,0.8,0.3c0.3,0,0.6-0.1,0.8-0.3C32.1,31.2,32.1,30.4,31.7,30z M2.4,13C2.4,7.2,7.2,2.4,13,2.4S23.7,7.2,23.7,13
	S18.9,23.7,13,23.7S2.4,18.9,2.4,13z"/>
</svg>
