<?xml version="1.0" encoding="utf-8"?>
<!-- Generator: Adobe Illustrator 19.0.0, SVG Export Plug-In . SVG Version: 6.00 Build 0)  -->
<svg version="1.1" id="Camada_1" xmlns="http://www.w3.org/2000/svg" xmlns:xlink="http://www.w3.org/1999/xlink" x="0px" y="0px"
	 viewBox="0 0 12 12" style="enable-background:new 0 0 12 12;" xml:space="preserve">
<g id="XMLID_1_">
	<path id="XMLID_38_" d="M4.8,9C4.4,9,4,9,3.6,9c0,0.1,0,0.2,0,0.3c-0.1,0.8-0.9,1.5-1.7,1.5c-0.9,0-1.6-0.6-1.8-1.4
		C0,9.2,0,9,0,8.9c0-1.2,0-2.4,0-3.6c0-0.7,0.4-1,1-1c0,0,0,0,0,0c0.2,0,0.6,0.1,0.7-0.1c0.1-0.1,0-0.4,0.1-0.7c0-0.4,0-0.8,0-1.2
		c0-0.7,0.4-1,1.1-1c0.8,0,1.6,0,2.5,0c0.6,0,0.9,0.2,1.1,0.7c0.5,1.3,0.9,2.5,1.4,3.8c0.1,0.2,0.1,0.3,0.1,0.5c0,0.3,0,0.5,0,0.8
		c0,0.4,0,0.7,0.3,1c0.4,0.6,0.4,1.4,0,2c-0.4,0.6-1.1,0.9-1.8,0.7C5.5,10.6,5,10.1,4.9,9.3C4.8,9.2,4.8,9.2,4.8,9z M3,2.4
		C3,3,3,3.5,3,4.1c0,0.1,0.1,0.2,0.1,0.2c0.5,0.5,1,1,1.6,1.6C4.7,5.9,4.8,6,4.9,6C5.4,6,6,6,6.5,6c0,0,0-0.1,0-0.1
		C6.1,4.8,5.7,3.6,5.3,2.5c0,0-0.1-0.1-0.1-0.1C4.5,2.4,3.7,2.4,3,2.4z M1.8,8.1C1.3,8.1,0.9,8.5,0.9,9c0,0.5,0.4,0.9,0.9,0.9
		c0.5,0,0.9-0.4,0.9-0.9C2.7,8.5,2.3,8.1,1.8,8.1z M6.6,8.1C6.1,8.1,5.7,8.5,5.7,9c0,0.5,0.4,0.9,0.9,0.9c0.5,0,0.9-0.4,0.9-0.9
		C7.5,8.5,7.1,8.1,6.6,8.1z"/>
	<path id="XMLID_37_" d="M9,5.4C9,4.2,9,3,9,1.8c0-0.5,0.4-0.7,0.8-0.6c0.2,0.1,0.3,0.2,0.3,0.4c0,0.1,0,0.3,0,0.4c0,2,0,4,0,6
		c0,0.4,0,0.4,0.4,0.4c0.3,0,0.6,0,0.8,0C11.8,8.4,12,8.7,12,9c0,0.4-0.2,0.6-0.6,0.6c-0.6,0-1.2,0-1.8,0C9.2,9.6,9,9.4,9,9
		C9,7.8,9,6.6,9,5.4C9,5.4,9,5.4,9,5.4z"/>
</g>
</svg>
