<?xml version="1.0" encoding="utf-8"?>
<!-- Generator: Adobe Illustrator 19.0.0, SVG Export Plug-In . SVG Version: 6.00 Build 0)  -->
<svg version="1.1" id="Camada_1" xmlns="http://www.w3.org/2000/svg" xmlns:xlink="http://www.w3.org/1999/xlink" x="0px" y="0px"
	 viewBox="-289 381 32 32" style="enable-background:new -289 381 32 32;" xml:space="preserve">
<path d="M-278.5,382.1c0.3-0.7,1-1.1,1.8-1.1h7.5c0.8,0,1.4,0.4,1.8,1.1l0.5,0.9h6c1.1,0,2,0.9,2,2s-0.9,2-2,2h-24c-1.1,0-2-0.9-2-2
	s0.9-2,2-2h6L-278.5,382.1z M-285.1,389h24.1v20c0,2.2-1.8,4-4,4h-16.1c-2.2,0-4-1.8-4-4V389z M-280.1,394v14c0,0.5,0.5,1,1,1
	c0.6,0,1-0.5,1-1v-14c0-0.5-0.4-1-1-1C-279.5,393-280.1,393.5-280.1,394z M-274.1,394v14c0,0.5,0.5,1,1,1c0.6,0,1.1-0.5,1.1-1v-14
	c0-0.5-0.5-1-1.1-1C-273.5,393-274.1,393.5-274.1,394z M-268,394v14c0,0.5,0.5,1,1,1s1-0.5,1-1v-14c0-0.5-0.5-1-1-1
	S-268,393.5-268,394z"/>
</svg>
