<?xml version="1.0" encoding="utf-8"?>
<!-- Generator: Adobe Illustrator 25.3.1, SVG Export Plug-In . SVG Version: 6.00 Build 0)  -->
<svg version="1.1" id="Camada_1" xmlns="http://www.w3.org/2000/svg" xmlns:xlink="http://www.w3.org/1999/xlink" x="0px" y="0px"
	 viewBox="0 0 32 32" style="enable-background:new 0 0 32 32;" xml:space="preserve">
<style type="text/css">
	.st0{opacity:0;}
</style>
<g>
	<path d="M16,15.3c-4.2,0-7.7-3.4-7.7-7.7S11.8,0,16,0s7.7,3.4,7.7,7.7S20.2,15.3,16,15.3z M16,1.8c-3.2,0-5.9,2.6-5.9,5.9
		s2.6,5.9,5.9,5.9s5.9-2.6,5.9-5.9S19.2,1.8,16,1.8z"/>
	<path d="M22.8,32H9.2c-3,0-5.4-2.4-5.4-5.4v-0.9c0-5,4-9,9-9h6.3c5,0,9,4,9,9v0.9C28.2,29.6,25.7,32,22.8,32z M12.8,18.5
		c-4,0-7.2,3.2-7.2,7.2v0.9c0,2,1.6,3.6,3.6,3.6h13.5c2,0,3.6-1.6,3.6-3.6v-0.9c0-4-3.2-7.2-7.2-7.2H12.8z"/>
</g>
<rect class="st0" width="32" height="32"/>
</svg>
