<?xml version="1.0" encoding="utf-8"?>
<!-- Generator: Adobe Illustrator 19.0.0, SVG Export Plug-In . SVG Version: 6.00 Build 0)  -->
<svg version="1.1" id="Camada_1" xmlns="http://www.w3.org/2000/svg" xmlns:xlink="http://www.w3.org/1999/xlink" x="0px" y="0px"
	 viewBox="296 0 24 24" style="enable-background:new 296 0 24 24;" xml:space="preserve">
<path d="M319.3,19.9c0.9,0.9,0.9,2.5,0,3.4c-0.5,0.5-1.1,0.7-1.7,0.7c-0.6,0-1.2-0.2-1.7-0.7l-7.9-7.9l-7.9,7.9
	c-0.5,0.5-1.1,0.7-1.7,0.7s-1.2-0.2-1.7-0.7c-0.9-0.9-0.9-2.5,0-3.4l7.9-7.9l-7.9-7.9c-0.9-0.9-0.9-2.5,0-3.4c0.9-0.9,2.5-0.9,3.4,0
	l7.9,7.9l7.9-7.9c0.9-0.9,2.5-0.9,3.4,0c0.9,0.9,0.9,2.5,0,3.4l-7.9,7.9L319.3,19.9z"/>
</svg>
